<svg version="1.1" id="Layer_1" xmlns="http://www.w3.org/2000/svg" xmlns:xlink="http://www.w3.org/1999/xlink" x="0px" y="0px"
	 width="100%" viewBox="0 0 120 120" enable-background="new 0 0 120 120" xml:space="preserve">
<path fill="#444F5E" opacity="1.000000" stroke="none" 
	d="
M0.999999,60.000000 
	C1.000000,40.416431 1.000000,20.832863 1.000000,1.000000 
	C15.686622,1.000000 30.374653,1.000000 45.617859,1.362986 
	C48.437065,2.496208 50.701092,3.266444 52.960686,4.352655 
	C52.526974,5.815938 52.097698,6.963247 51.457344,8.674702 
	C53.759274,8.411504 55.994183,8.750748 57.420330,7.833085 
	C58.986095,6.825584 59.806667,4.659979 60.956810,2.665743 
	C60.974453,1.888329 60.987225,1.444165 61.000000,1.000000 
	C67.021156,1.000000 73.042305,1.000000 79.581528,1.324034 
	C80.189011,3.077696 80.278427,4.507325 79.979507,5.863780 
	C78.721153,6.540958 77.851151,7.291311 77.116997,8.282355 
	C77.477516,9.360077 77.702171,10.197107 77.587181,11.011153 
	C76.577072,11.071218 75.906616,11.154267 74.875290,11.304981 
	C67.971870,11.891819 74.140915,15.070645 73.042122,16.724863 
	C72.464554,17.237854 72.223869,17.825289 71.577805,18.235191 
	C69.113846,18.073326 67.055267,18.088989 64.616531,18.063126 
	C61.439754,20.389406 58.492073,20.819500 55.375179,18.668825 
	C52.474766,16.667530 49.656223,16.587542 46.515293,18.962328 
	C45.078991,18.994099 44.034065,19.006708 42.949059,18.942616 
	C42.908981,18.865915 42.744884,18.826500 42.744884,18.826500 
	C42.744884,18.826500 43.019508,18.989687 42.954460,19.341953 
	C39.856537,21.384159 36.853733,23.131487 33.779335,24.742165 
	C31.981993,25.683794 30.875957,26.506760 33.682838,28.082113 
	C33.676174,28.867859 33.460068,29.489050 33.096710,30.006926 
	C32.408161,30.988270 31.635164,31.910360 30.541832,32.871605 
	C28.051271,35.194706 25.916128,37.503269 23.471680,39.877403 
	C22.752134,40.620953 22.341896,41.298927 21.583828,41.979004 
	C18.401762,43.599583 17.214411,45.666500 19.209339,48.142948 
	C18.016626,49.919270 16.999796,51.433647 15.670181,53.092583 
	C14.188990,55.136833 13.020584,57.036530 11.567406,59.025024 
	C10.713274,59.290287 10.143914,59.466751 9.320026,59.489056 
	C8.078377,59.948219 7.091257,60.561543 5.516377,61.253952 
	C4.586488,61.531197 4.244357,61.729347 3.609402,61.845329 
	C2.544384,61.175446 1.772191,60.587723 0.999999,60.000000 
M16.002125,36.776440 
	C16.098064,37.650829 16.194004,38.525219 16.289944,39.399609 
	C16.420387,39.386211 16.550831,39.372818 16.681274,39.359425 
	C16.681274,31.469770 16.681274,23.580116 16.681274,15.690461 
	C16.454700,15.690451 16.228128,15.690440 16.001554,15.690430 
	C16.001554,22.441216 16.001554,29.192001 16.002125,36.776440 
M12.679100,43.957409 
	C13.980640,43.957409 15.282182,43.957409 16.583723,43.957409 
	C16.604488,43.662540 16.625256,43.367672 16.646023,43.072803 
	C14.447792,42.780918 12.249560,42.489033 10.051330,42.197151 
	C9.982636,42.586159 9.913943,42.975166 9.845250,43.364174 
	C10.550956,43.553505 11.256661,43.742836 12.679100,43.957409 
z"/>
<path fill="#45505F" opacity="1.000000" stroke="none" 
	d="
M121.000000,120.000000 
	C119.671783,120.333336 118.343956,120.956100 117.015297,120.957893 
	C78.467430,121.009979 39.919479,121.000000 1.000000,121.000000 
	C1.000000,113.983559 1.000000,106.960556 1.268714,99.515076 
	C2.325678,100.270744 2.867661,101.846397 3.964732,102.526100 
	C5.325208,103.368996 7.222543,103.944672 8.735773,103.698860 
	C9.540014,103.568207 10.022738,101.458359 11.074656,100.242493 
	C13.283115,102.325264 15.067512,104.407440 16.960987,106.771378 
	C19.559572,107.501968 21.726757,108.352371 22.436403,111.506927 
	C26.541805,114.137131 30.003365,118.382889 35.641720,114.879593 
	C36.491268,113.830322 39.494946,113.046516 36.322639,111.659210 
	C38.149319,109.727028 39.722366,108.019669 41.582470,106.155334 
	C42.061378,105.893852 42.253231,105.789360 42.581345,105.679764 
	C42.717598,105.674660 42.983429,105.613815 43.279900,105.869942 
	C43.932808,105.072014 44.289242,104.017967 44.937233,102.821045 
	C45.480560,102.116531 45.732338,101.554878 46.334618,101.117798 
	C49.619972,102.685951 50.989319,102.036514 50.623520,98.748749 
	C52.952454,98.084290 54.911751,97.244156 57.101856,96.642502 
	C59.553135,95.881485 61.773602,94.881989 64.341461,93.950005 
	C66.151428,93.931725 67.613998,93.845917 69.393471,93.787148 
	C70.134132,93.811737 70.557899,93.809296 71.331932,93.927032 
	C72.439781,93.649750 73.197365,93.252281 74.279556,92.799728 
	C75.205345,92.753769 75.806526,92.762901 76.784210,92.797073 
	C79.138321,92.581741 80.832581,90.771255 83.121773,93.296333 
	C84.660385,94.993492 87.893188,95.899879 90.347542,95.861198 
	C94.964317,95.788422 98.973473,96.042336 100.890747,101.420151 
	C100.650459,102.311951 100.210365,103.004562 100.374893,103.207863 
	C103.283424,106.801727 106.265594,110.335999 109.508705,114.098495 
	C113.523705,116.209229 117.261856,118.104614 121.000000,120.000000 
z"/>
<path fill="#475361" opacity="1.000000" stroke="none" 
	d="
M98.000000,1.000001 
	C105.627449,1.000000 113.254906,1.000000 121.000000,1.000000 
	C121.000000,21.687429 121.000000,42.375057 120.706833,63.545010 
	C119.935287,64.276573 119.456902,64.525810 118.627136,64.700394 
	C115.287819,63.089386 112.299896,61.553024 109.287529,60.004097 
	C109.282692,58.221069 115.614853,58.890358 111.541901,55.212135 
	C113.064857,54.441425 114.225235,53.750168 116.038811,52.669800 
	C113.985191,51.196178 112.484009,50.118973 110.985825,49.016785 
	C110.988815,48.991806 110.949516,49.023266 111.003098,48.598198 
	C111.611389,44.687279 111.153000,40.920441 114.477951,38.266521 
	C115.050209,37.809761 114.940681,35.166664 114.350967,34.794952 
	C109.169670,31.529013 110.530922,25.329981 107.971176,20.613939 
	C108.687279,18.137281 109.305229,16.042988 110.114624,13.634182 
	C111.049828,9.074082 109.327965,7.188211 103.340942,5.865035 
	C102.704109,7.755724 102.060020,9.667946 101.543747,11.200700 
	C99.651642,11.345389 97.989105,11.472524 96.619003,11.577295 
	C97.119698,14.342359 97.539497,16.660702 97.620697,19.096504 
	C95.641258,18.811443 92.548004,18.207577 92.571815,18.035828 
	C93.183846,13.620927 89.539307,12.705987 87.018097,10.571745 
	C87.667786,9.165798 88.303520,8.092202 89.073334,7.357764 
	C91.334366,8.092138 94.780518,9.454519 95.335632,8.697349 
	C96.869591,6.605052 97.196098,3.627525 98.000000,1.000001 
z"/>
<path fill="#F9FCF9" opacity="1.000000" stroke="none" 
	d="
M16.851908,106.489616 
	C15.067512,104.407440 13.283115,102.325264 10.890535,100.021599 
	C7.188234,94.533409 4.094117,89.266701 1.000000,84.000000 
	C1.000000,83.555557 1.000000,83.111107 1.346344,82.251328 
	C1.819168,80.904320 1.945647,79.972656 2.435365,79.015961 
	C3.815046,78.010345 4.831487,77.029747 6.059275,75.870506 
	C6.190138,74.822380 6.109655,73.952904 6.097649,72.733513 
	C6.827536,71.613609 7.645611,70.926308 8.107574,70.051048 
	C8.597971,69.121902 8.750426,68.014389 9.024372,66.989487 
	C8.998282,66.994209 9.034927,67.032524 9.352097,67.037094 
	C10.411297,66.692406 11.153328,66.343147 12.312222,66.004700 
	C16.310736,65.945641 15.902107,68.524849 16.010519,70.854080 
	C16.292343,76.909157 16.643431,82.961006 17.216125,89.231064 
	C18.316635,89.625374 19.167898,89.802780 20.402287,89.985542 
	C22.220207,89.676750 23.655003,89.362602 25.419321,89.060478 
	C26.881681,89.814034 28.014519,90.555580 29.387228,91.454140 
	C29.860641,90.818665 30.409760,90.081573 31.324753,89.291077 
	C32.479351,90.467339 33.268070,91.697014 33.983334,93.189636 
	C32.121006,94.423538 30.332138,95.394485 28.543270,96.365433 
	C28.690712,96.719193 28.838152,97.072952 28.985592,97.426712 
	C31.656040,97.289368 34.326488,97.152016 37.272724,97.242096 
	C39.703281,97.294182 41.858051,97.118828 44.191799,97.107224 
	C44.602108,97.497589 44.819294,97.737045 45.000702,98.288391 
	C44.966595,98.786980 44.954128,98.986488 44.999672,99.447311 
	C45.366493,100.136826 45.675301,100.565025 45.984112,100.993225 
	C45.732338,101.554878 45.480560,102.116531 44.730568,102.994888 
	C43.816044,104.079002 43.399738,104.846413 42.983429,105.613815 
	C42.983429,105.613815 42.717598,105.674660 42.438705,105.406937 
	C41.764320,105.054024 41.368828,104.968849 40.927826,104.604019 
	C40.560875,103.874550 40.239429,103.424736 39.870579,102.644165 
	C38.173325,102.119041 36.523479,101.924667 34.555458,101.606110 
	C28.601143,100.310005 28.601143,100.310005 27.989874,103.018051 
	C28.019825,103.029602 28.041050,102.969009 27.642422,102.928802 
	C26.978073,102.915680 26.712349,102.942764 26.067150,102.969254 
	C23.457727,103.313202 21.227781,103.657738 18.978054,103.816132 
	C18.827335,103.442932 18.696398,103.255875 18.565460,103.068817 
	C18.527733,103.175987 18.425589,103.328583 18.463533,103.382401 
	C18.619892,103.604156 18.818775,103.795929 18.999245,104.206467 
	C18.996468,104.414207 18.989882,104.829666 18.696404,105.002251 
	C17.885920,105.613098 17.368914,106.051361 16.851908,106.489616 
M19.923819,94.797119 
	C19.923819,94.797119 19.669878,94.800949 19.669878,94.800949 
	C19.669878,94.800949 19.954681,95.033318 19.991119,95.678787 
	C20.440170,96.411728 20.889221,97.144661 21.338272,97.877602 
	C21.699150,97.558289 22.060030,97.238976 22.420908,96.919662 
	C21.623665,96.266411 20.826422,95.613159 19.923819,94.797119 
M15.205290,93.325203 
	C15.427417,93.824669 15.649543,94.324127 15.871672,94.823593 
	C16.316925,94.524040 16.762178,94.224487 17.207432,93.924927 
	C16.720411,93.669189 16.233393,93.413445 15.205290,93.325203 
M18.517401,98.804070 
	C18.517401,98.804070 18.411724,99.147209 18.411724,99.147209 
	C18.411724,99.147209 18.655519,98.928757 18.517401,98.804070 
M20.502323,100.468452 
	C20.502323,100.468452 20.521463,100.514534 20.502323,100.468452 
M30.495592,98.531700 
	C30.495592,98.531700 30.476768,98.485619 30.495592,98.531700 
z"/>
<path fill="#EDF8ED" opacity="1.000000" stroke="none" 
	d="
M109.231857,113.883148 
	C106.265594,110.335999 103.283424,106.801727 100.374893,103.207863 
	C100.210365,103.004562 100.650459,102.311951 101.199257,101.163071 
	C102.669601,97.112709 103.749832,93.746361 104.886253,90.062042 
	C104.952988,89.529816 104.963547,89.315567 105.315720,89.021622 
	C105.722748,88.291237 105.788162,87.640541 105.853096,86.693069 
	C105.862373,86.001503 105.872116,85.606697 106.113892,84.918808 
	C108.437630,82.266144 109.082077,80.249062 105.410255,78.659065 
	C104.661690,78.334923 104.420753,76.838470 103.897247,75.722076 
	C103.848686,75.561722 103.832283,75.227028 103.985641,75.058304 
	C104.714012,74.887924 105.289024,74.886269 106.210068,74.916946 
	C107.017334,74.972023 107.478561,74.994766 107.970078,75.242294 
	C108.000359,75.467064 108.047058,75.918259 108.114182,76.246323 
	C109.084793,77.062614 109.988297,77.550850 111.104370,78.170044 
	C112.622894,78.224075 113.928825,78.147156 115.522400,78.055664 
	C116.195038,78.031120 116.580025,78.021126 117.267685,78.044632 
	C118.078659,78.376564 118.586967,78.674995 118.799149,79.046730 
	C118.289284,80.365532 118.075554,81.611031 117.540138,82.964935 
	C116.484497,85.067665 115.750534,87.061989 115.020355,89.344788 
	C114.984589,90.016296 114.945038,90.399338 114.654137,91.014885 
	C113.977882,92.515190 113.552979,93.782982 113.097778,95.094780 
	C113.067490,95.138786 113.062790,95.053017 113.392120,95.021393 
	C115.197983,94.963127 116.629105,98.797997 118.454773,95.045334 
	C119.166779,95.028976 119.573517,95.009125 120.234665,95.041534 
	C120.659386,95.062531 120.829689,95.031265 121.000000,95.000000 
	C121.000000,98.030594 121.000000,101.061188 120.666107,104.625717 
	C118.025070,104.415688 115.945671,103.833557 117.797119,107.570610 
	C118.118309,108.218910 117.826843,109.170731 117.471359,110.019302 
	C115.694557,111.395050 114.264755,112.733849 113.476364,113.472061 
	C111.620308,113.651817 110.426086,113.767479 109.231857,113.883148 
M111.356285,89.881828 
	C111.356285,89.881828 111.564873,90.173462 111.564873,90.173462 
	C111.564873,90.173462 111.533371,89.788139 111.356285,89.881828 
z"/>
<path fill="#C1F6C3" opacity="1.000000" stroke="none" 
	d="
M119.095284,78.973427 
	C118.586967,78.674995 118.078659,78.376564 117.203072,77.796539 
	C116.302116,77.700035 115.768440,77.885132 115.234764,78.070229 
	C113.928825,78.147156 112.622894,78.224075 111.029648,77.850761 
	C109.843910,76.906433 108.945488,76.412346 108.047058,75.918259 
	C108.047058,75.918259 108.000359,75.467064 107.934181,74.966911 
	C107.200020,74.606041 106.532028,74.745331 105.864044,74.884621 
	C105.289024,74.886269 104.714012,74.887924 103.725479,74.944534 
	C102.915977,74.597260 102.519997,74.195023 102.073357,73.443970 
	C101.303749,71.453979 100.584801,69.812805 100.136703,68.022308 
	C100.831459,67.615692 101.383949,67.037941 101.660172,67.148766 
	C106.451019,69.070862 111.207916,71.077576 116.313675,73.208298 
	C117.231628,70.303307 118.105072,67.539177 118.978516,64.775047 
	C119.456902,64.525810 119.935287,64.276573 120.706833,64.013672 
	C121.000000,68.689255 121.000000,73.378510 120.682083,78.528641 
	C119.941208,78.984146 119.518250,78.978790 119.095284,78.973427 
z"/>
<path fill="#5F6F75" opacity="1.000000" stroke="none" 
	d="
M1.000000,84.466118 
	C4.094117,89.266701 7.188234,94.533409 10.466471,100.021004 
	C10.022738,101.458359 9.540014,103.568207 8.735773,103.698860 
	C7.222543,103.944672 5.325208,103.368996 3.964732,102.526100 
	C2.867661,101.846397 2.325678,100.270744 1.268714,99.046295 
	C1.000000,94.310745 1.000000,89.621490 1.000000,84.466118 
z"/>
<path fill="#D6E3DE" opacity="1.000000" stroke="none" 
	d="
M97.539368,1.000001 
	C97.196098,3.627525 96.869591,6.605052 95.335632,8.697349 
	C94.780518,9.454519 91.334366,8.092138 89.060989,7.062163 
	C88.132713,5.572889 87.350845,4.718374 86.499443,3.503613 
	C86.286606,2.428912 86.143303,1.714456 86.000000,1.000000 
	C89.692909,1.000000 93.385818,1.000000 97.539368,1.000001 
z"/>
<path fill="#4B5967" opacity="1.000000" stroke="none" 
	d="
M86.568977,3.863858 
	C87.350845,4.718374 88.132713,5.572889 88.926910,6.723006 
	C88.303520,8.092202 87.667786,9.165798 86.828094,10.755886 
	C86.359734,11.505652 86.095337,11.738927 85.672348,11.833390 
	C85.000275,11.476362 84.486794,11.258146 83.641068,11.044019 
	C82.529167,11.394383 81.749504,11.740659 80.603073,12.050604 
	C79.504051,11.965332 78.771797,11.916391 78.029648,11.656650 
	C78.019753,11.445848 77.926834,11.034138 77.926834,11.034138 
	C77.702171,10.197107 77.477516,9.360077 77.485809,8.273569 
	C78.601799,7.328380 79.484833,6.632668 80.367859,5.936954 
	C80.278427,4.507325 80.189011,3.077696 80.049789,1.324034 
	C80.750000,1.000000 81.500000,1.000000 82.658730,1.387002 
	C84.234634,2.470622 85.401802,3.167240 86.568977,3.863858 
z"/>
<path fill="#DCEED6" opacity="1.000000" stroke="none" 
	d="
M109.508713,114.098495 
	C110.426086,113.767479 111.620308,113.651817 113.476364,113.472061 
	C114.264755,112.733849 115.694557,111.395050 117.541916,110.367378 
	C117.835800,113.735466 119.450829,112.791977 121.000000,112.000000 
	C121.000000,114.370560 121.000000,116.741112 121.000000,119.555832 
	C117.261856,118.104614 113.523705,116.209229 109.508713,114.098495 
z"/>
<path fill="#51656F" opacity="1.000000" stroke="none" 
	d="
M52.965118,4.036680 
	C50.701092,3.266444 48.437065,2.496208 46.086517,1.362986 
	C50.689255,1.000000 55.378513,1.000000 60.533882,1.000000 
	C60.987225,1.444165 60.974453,1.888329 60.570236,2.737709 
	C57.774231,3.440843 55.369675,3.738761 52.965118,4.036680 
z"/>
<path fill="#5DD75E" opacity="1.000000" stroke="none" 
	d="
M121.000000,111.562500 
	C119.450829,112.791977 117.835800,113.735466 117.888924,110.330429 
	C117.826843,109.170731 118.118309,108.218910 117.797119,107.570610 
	C115.945671,103.833557 118.025070,104.415688 120.666107,105.079834 
	C121.000000,107.041664 121.000000,109.083336 121.000000,111.562500 
z"/>
<path fill="#E9EBEC" opacity="1.000000" stroke="none" 
	d="
M6.029171,73.083427 
	C6.109655,73.952904 6.190138,74.822380 5.715726,75.873398 
	C3.773887,75.036629 2.386943,74.018311 1.000000,73.000000 
	C1.000000,71.933327 1.000000,70.866661 1.252122,69.316284 
	C1.672916,68.886566 1.841588,68.940567 2.028692,69.314972 
	C2.126524,70.217293 2.205924,70.799202 2.285323,71.381104 
	C2.445889,71.384315 2.606456,71.387527 2.767022,71.390747 
	C2.871927,70.609901 2.976831,69.829063 3.398783,69.099655 
	C4.082904,69.371140 4.449979,69.591194 4.814774,70.128769 
	C5.218053,71.325333 5.623612,72.204384 6.029171,73.083427 
z"/>
<path fill="#57616E" opacity="1.000000" stroke="none" 
	d="
M1.000000,73.428467 
	C2.386943,74.018311 3.773887,75.036629 5.504379,76.052048 
	C4.831487,77.029747 3.815046,78.010345 2.168478,78.974731 
	C1.358900,78.972359 1.179450,78.986183 1.000000,79.000000 
	C1.000000,77.285645 1.000000,75.571281 1.000000,73.428467 
z"/>
<path fill="#E2F5E4" opacity="1.000000" stroke="none" 
	d="
M118.799149,79.046730 
	C119.518250,78.978790 119.941208,78.984146 120.682083,78.994751 
	C121.000000,79.750000 121.000000,80.500000 120.714935,81.654602 
	C119.942062,82.315735 119.454262,82.572266 118.780960,82.947144 
	C118.595459,83.065498 118.167099,83.164711 118.090607,83.087845 
	C118.014107,83.010979 117.861832,82.856529 117.861832,82.856529 
	C118.075554,81.611031 118.289284,80.365532 118.799149,79.046730 
z"/>
<path fill="#C0C6C9" opacity="1.000000" stroke="none" 
	d="
M1.000000,66.000000 
	C1.000000,65.555664 1.000000,65.111328 1.381402,64.607025 
	C2.027506,64.380219 2.292208,64.213364 2.788031,64.089981 
	C3.331286,64.098015 3.638684,64.038231 4.082850,64.272446 
	C4.497159,65.705132 4.769962,66.819473 4.718234,67.844856 
	C3.546831,67.511116 2.699959,67.266327 1.863708,66.697533 
	C1.582885,66.249023 1.291443,66.124512 1.000000,66.000000 
z"/>
<path fill="#444F5E" opacity="1.000000" stroke="none" 
	d="
M86.499443,3.503613 
	C85.401802,3.167240 84.234634,2.470622 83.033730,1.387002 
	C83.750000,1.000000 84.500000,1.000000 85.625000,1.000000 
	C86.143303,1.714456 86.286606,2.428912 86.499443,3.503613 
z"/>
<path fill="#656F7C" opacity="1.000000" stroke="none" 
	d="
M1.853088,67.021530 
	C2.699959,67.266327 3.546831,67.511116 4.694870,67.879303 
	C4.996037,68.002708 4.950165,68.072174 4.912229,68.506592 
	C4.855212,69.231079 4.836133,69.521164 4.817054,69.811249 
	C4.449979,69.591194 4.082904,69.371140 3.131237,69.079727 
	C2.367850,69.003769 2.189055,68.999161 2.010260,68.994560 
	C1.841588,68.940567 1.672916,68.886566 1.252122,68.916290 
	C1.000000,68.555557 1.000000,68.111107 1.213234,67.340233 
	C1.426468,67.013802 1.853088,67.021530 1.853088,67.021530 
z"/>
<path fill="#9098A0" opacity="1.000000" stroke="none" 
	d="
M3.941345,63.954094 
	C3.638684,64.038231 3.331286,64.098015 2.535734,63.900948 
	C1.701544,63.445633 1.350772,63.222816 1.000000,63.000000 
	C1.000000,62.250000 1.000000,61.500000 0.999999,60.375000 
	C1.772191,60.587723 2.544384,61.175446 3.677227,62.179543 
	C4.005699,63.048641 3.973522,63.501369 3.941345,63.954094 
z"/>
<path fill="#BBD8BE" opacity="1.000000" stroke="none" 
	d="
M118.966461,82.828796 
	C119.454262,82.572266 119.942062,82.315735 120.714935,82.029602 
	C121.000000,83.066673 121.000000,84.133339 120.716782,85.635422 
	C120.245514,86.099876 120.057465,86.128914 119.683884,86.064369 
	C119.498367,85.970787 119.130241,85.776512 119.181458,85.505371 
	C119.143929,84.432419 119.055199,83.630608 118.966461,82.828796 
z"/>
<path fill="#B1C1BA" opacity="1.000000" stroke="none" 
	d="
M121.000000,89.000000 
	C121.000000,89.000000 121.000000,89.500000 120.789413,89.933243 
	C120.398987,90.881508 120.219147,91.396530 119.778992,91.923340 
	C119.347481,91.964729 119.176292,91.994316 118.886597,91.826340 
	C118.576439,91.382721 118.341560,91.189140 118.035561,90.734848 
	C118.050491,90.004578 118.093300,89.587494 118.124748,89.160591 
	C118.113388,89.150772 118.113106,89.126465 118.398521,89.062134 
	C119.059677,88.890297 119.435410,88.782784 120.108521,88.755875 
	C120.603920,88.890984 120.801956,88.945488 121.000000,89.000000 
z"/>
<path fill="#90B9A1" opacity="1.000000" stroke="none" 
	d="
M119.005112,92.023903 
	C119.176292,91.994316 119.347481,91.964729 119.890274,92.145134 
	C120.454582,92.631142 120.700623,92.846100 121.000000,93.000000 
	C121.000000,93.444443 121.000000,93.888893 121.000000,94.666672 
	C120.829689,95.031265 120.659386,95.062531 120.124382,94.745239 
	C119.508156,93.605766 119.256630,92.814835 119.005112,92.023903 
z"/>
<path fill="#B8F7B8" opacity="1.000000" stroke="none" 
	d="
M121.000000,92.625000 
	C120.700623,92.846100 120.454582,92.631142 120.150589,92.133339 
	C120.219147,91.396530 120.398987,90.881508 120.789413,90.183243 
	C121.000000,90.750000 121.000000,91.500000 121.000000,92.625000 
z"/>
<path fill="#8CAD93" opacity="1.000000" stroke="none" 
	d="
M121.000000,88.625000 
	C120.801956,88.945488 120.603920,88.890984 120.174789,88.446457 
	C119.918930,87.423615 119.894173,86.790779 119.869415,86.157951 
	C120.057465,86.128914 120.245514,86.099876 120.716782,86.035416 
	C121.000000,86.750000 121.000000,87.500000 121.000000,88.625000 
z"/>
<path fill="#77808A" opacity="1.000000" stroke="none" 
	d="
M1.000000,79.375000 
	C1.179450,78.986183 1.358900,78.972359 1.805238,78.999763 
	C1.945647,79.972656 1.819168,80.904320 1.346344,81.917992 
	C1.000000,81.250000 1.000000,80.500000 1.000000,79.375000 
z"/>
<path fill="#4B5564" opacity="1.000000" stroke="none" 
	d="
M1.000000,63.250000 
	C1.350772,63.222816 1.701544,63.445633 2.304613,63.857483 
	C2.292208,64.213364 2.027506,64.380219 1.381402,64.273529 
	C1.000000,64.000000 1.000000,63.500000 1.000000,63.250000 
z"/>
<path fill="#4B5564" opacity="1.000000" stroke="none" 
	d="
M1.863708,66.697533 
	C1.853088,67.021530 1.426468,67.013802 1.213234,67.006897 
	C1.000000,67.000000 1.000000,66.500000 1.000000,66.250000 
	C1.291443,66.124512 1.582885,66.249023 1.863708,66.697533 
z"/>
<path fill="#FAFCFA" opacity="1.000000" stroke="none" 
	d="
M30.897251,32.857067 
	C31.635164,31.910360 32.408161,30.988270 33.096710,30.006926 
	C33.460068,29.489050 33.676174,28.867859 34.066444,28.001780 
	C36.425838,26.590460 38.677551,25.470673 40.926331,24.798811 
	C41.240807,26.835966 41.003670,29.035297 41.968483,29.912254 
	C47.023781,34.507198 45.314823,41.321384 47.808258,46.725201 
	C48.289154,47.767406 47.252846,49.509686 46.722626,50.943935 
	C46.528812,50.958855 46.139233,50.984776 45.906250,50.762085 
	C44.735966,49.764824 43.798668,48.990250 42.757385,47.969753 
	C42.362148,47.531094 42.070896,47.338352 41.406715,47.177509 
	C40.036846,47.183712 39.039902,47.158020 37.767750,46.871895 
	C34.663754,46.694847 31.834963,46.778225 28.780682,46.968372 
	C28.555189,47.075138 28.090435,47.256771 27.837791,46.986835 
	C25.728329,46.143757 23.871511,45.570618 21.911930,44.659012 
	C21.923382,43.888916 22.037596,43.457291 22.520905,43.031010 
	C23.630726,42.997952 24.371454,42.959545 25.312309,42.931778 
	C25.512436,42.942421 25.913256,42.941746 26.226833,42.903229 
	C27.043592,42.276424 27.546772,41.688145 28.062607,40.717278 
	C29.015924,37.842148 29.956589,35.349609 30.897251,32.857067 
z"/>
<path fill="#F4FAF5" opacity="1.000000" stroke="none" 
	d="
M16.966881,89.014145 
	C16.643431,82.961006 16.292343,76.909157 16.010519,70.854080 
	C15.902107,68.524849 16.310736,65.945641 12.110415,65.743362 
	C10.660861,64.801308 9.829975,64.131401 9.037912,63.457825 
	C9.076734,63.454151 9.091624,63.377594 9.053152,62.988152 
	C9.201304,61.613548 9.387930,60.628380 9.574554,59.643215 
	C10.143914,59.466751 10.713274,59.290287 11.914204,59.024811 
	C14.683070,58.971748 16.820368,59.007698 19.050823,59.332008 
	C19.752558,60.067070 20.361135,60.513775 20.975573,60.993011 
	C20.981432,61.025547 21.004625,61.087467 21.002831,61.512375 
	C21.028528,66.104675 20.423658,70.585739 25.918304,72.222504 
	C25.690990,72.722511 25.474049,72.937447 24.856464,73.074097 
	C23.983133,73.778816 22.855278,74.940567 23.004648,75.138504 
	C23.824709,76.225220 24.957569,77.075897 25.991667,78.003014 
	C26.000298,77.998413 25.992413,78.015656 25.992428,78.375656 
	C25.089706,81.818108 26.180195,83.928101 29.106726,85.327377 
	C29.097523,85.516899 29.044182,85.892624 29.032053,86.173798 
	C29.016893,86.642555 29.013865,86.830147 28.936008,87.249207 
	C28.861183,87.480659 28.652983,87.920364 28.350279,87.871628 
	C27.038681,87.545364 26.029789,87.267830 24.671080,86.999092 
	C22.889536,87.678902 21.457809,88.349915 19.643778,89.015244 
	C18.496609,89.011086 17.731745,89.012619 16.966881,89.014145 
M22.203861,81.361313 
	C22.139727,80.720627 22.075592,80.079941 22.011459,79.439262 
	C21.586624,79.525932 21.161789,79.612602 20.736954,79.699265 
	C21.042130,80.284897 21.347307,80.870522 22.203861,81.361313 
M18.530865,69.503937 
	C18.530865,69.503937 18.485838,69.522079 18.530865,69.503937 
z"/>
<path fill="#E9C2C4" opacity="1.000000" stroke="none" 
	d="
M46.906666,18.943169 
	C49.656223,16.587542 52.474766,16.667530 55.375179,18.668825 
	C58.492073,20.819500 61.439754,20.389406 64.560997,18.391479 
	C64.595558,19.829790 64.305496,20.898222 63.941353,22.239613 
	C61.499783,22.512571 59.132301,22.512571 57.216637,22.512571 
	C56.226971,26.862833 62.632702,31.242302 54.792355,32.684700 
	C53.889225,27.018419 53.132980,21.743647 45.504898,23.220583 
	C45.348030,23.250957 45.088646,22.751860 45.054382,22.241028 
	C45.790005,20.969248 46.348335,19.956209 46.906666,18.943169 
z"/>
<path fill="#E5EBE9" opacity="1.000000" stroke="none" 
	d="
M18.957664,59.043648 
	C16.820368,59.007698 14.683070,58.971748 12.198976,58.936012 
	C13.020584,57.036530 14.188990,55.136833 16.021688,53.193802 
	C17.416887,53.156460 18.147795,53.162457 18.967827,53.382305 
	C19.260696,53.886726 19.534538,53.988277 20.195986,54.057045 
	C21.961569,54.855732 23.409647,55.498184 24.818794,56.461056 
	C23.852930,58.184376 22.925993,59.587276 21.750320,61.013161 
	C21.501581,61.036144 21.004625,61.087467 21.004625,61.087467 
	C21.004625,61.087467 20.981432,61.025547 20.871132,60.771751 
	C20.159775,60.026516 19.558720,59.535080 18.957664,59.043648 
z"/>
<path fill="#777B86" opacity="1.000000" stroke="none" 
	d="
M46.515293,18.962328 
	C46.348335,19.956209 45.790005,20.969248 44.829693,22.420948 
	C43.261562,23.356701 42.095409,23.853792 40.929260,24.350885 
	C38.677551,25.470673 36.425838,26.590460 33.790524,27.790581 
	C30.875957,26.506760 31.981993,25.683794 33.779335,24.742165 
	C36.853733,23.131487 39.856537,21.384159 42.945271,19.347651 
	C43.001133,19.001081 42.989136,19.019320 42.989136,19.019318 
	C44.034065,19.006708 45.078991,18.994099 46.515293,18.962328 
z"/>
<path fill="#4B5C68" opacity="1.000000" stroke="none" 
	d="
M52.960686,4.352655 
	C55.369675,3.738761 57.774231,3.440843 60.565365,3.070958 
	C59.806667,4.659979 58.986095,6.825584 57.420330,7.833085 
	C55.994183,8.750748 53.759274,8.411504 51.457344,8.674702 
	C52.097698,6.963247 52.526974,5.815938 52.960686,4.352655 
z"/>
<path fill="#E6C6C8" opacity="1.000000" stroke="none" 
	d="
M64.015442,21.966652 
	C64.305496,20.898222 64.595558,19.829790 64.941147,18.433006 
	C67.055267,18.088989 69.113846,18.073326 71.501495,18.455503 
	C71.808472,19.166346 71.805626,19.479523 71.556152,19.973507 
	C71.586349,21.075375 71.882423,21.996616 71.942169,23.087624 
	C69.142372,22.827145 66.578911,22.396898 64.015442,21.966652 
z"/>
<path fill="#687481" opacity="1.000000" stroke="none" 
	d="
M18.878700,53.168453 
	C18.147795,53.162457 17.416887,53.156460 16.334475,53.049244 
	C16.999796,51.433647 18.016626,49.919270 19.209339,48.142948 
	C17.214411,45.666500 18.401762,43.599583 21.627874,42.243500 
	C22.063768,42.679150 22.107790,42.852406 22.151810,43.025661 
	C22.037596,43.457291 21.923382,43.888916 21.851131,44.967499 
	C22.172920,46.390015 22.452745,47.165585 22.485832,48.075634 
	C22.189953,48.752449 22.140816,49.294785 22.061342,50.113255 
	C22.021971,50.574371 22.012938,50.759354 21.693951,50.958481 
	C20.895529,51.335274 20.407059,51.697926 19.698528,52.195038 
	C19.278545,52.609154 19.078623,52.888805 18.878700,53.168453 
z"/>
<path fill="#C1C8C9" opacity="1.000000" stroke="none" 
	d="
M30.541832,32.871605 
	C29.956589,35.349609 29.015924,37.842148 27.750061,40.757225 
	C26.920994,41.767086 26.417126,42.354416 25.913258,42.941746 
	C25.913256,42.941746 25.512436,42.942421 25.279858,42.579918 
	C24.625183,41.415558 24.203083,40.613693 23.780987,39.811832 
	C25.916128,37.503269 28.051271,35.194706 30.541832,32.871605 
z"/>
<path fill="#4C5665" opacity="1.000000" stroke="none" 
	d="
M16.001839,36.359612 
	C16.001554,29.192001 16.001554,22.441216 16.001554,15.690430 
	C16.228128,15.690440 16.454700,15.690451 16.681274,15.690461 
	C16.681274,23.580116 16.681274,31.469770 16.681274,39.359425 
	C16.550831,39.372818 16.420387,39.386211 16.289944,39.399609 
	C16.194004,38.525219 16.098064,37.650829 16.001839,36.359612 
z"/>
<path fill="#E7ECEA" opacity="1.000000" stroke="none" 
	d="
M9.091623,63.377594 
	C9.091624,63.377594 9.076734,63.454151 8.881556,63.887268 
	C8.802562,65.224426 8.918744,66.128479 9.034927,67.032524 
	C9.034927,67.032524 8.998282,66.994209 8.662783,67.020470 
	C7.201578,67.388542 6.075872,67.730362 4.950166,68.072174 
	C4.950165,68.072174 4.996037,68.002708 5.019401,67.968262 
	C4.769962,66.819473 4.497159,65.705132 4.082850,64.272446 
	C3.973522,63.501369 4.005699,63.048641 3.970051,62.261707 
	C4.244357,61.729347 4.586488,61.531197 5.333073,61.625954 
	C6.855559,62.405109 7.973591,62.891354 9.091623,63.377594 
z"/>
<path fill="#838892" opacity="1.000000" stroke="none" 
	d="
M73.379005,16.799307 
	C74.140915,15.070645 67.971870,11.891819 74.935562,11.540492 
	C75.572556,12.142029 75.788414,12.575719 75.978600,13.329983 
	C75.977371,14.078427 76.001823,14.506297 75.691879,14.979038 
	C74.904320,15.684508 74.451157,16.345106 73.885590,16.981205 
	C73.773186,16.956707 73.379005,16.799307 73.379005,16.799307 
z"/>
<path fill="#687481" opacity="1.000000" stroke="none" 
	d="
M12.320733,43.944790 
	C11.256661,43.742836 10.550956,43.553505 9.845250,43.364174 
	C9.913943,42.975166 9.982636,42.586159 10.051330,42.197151 
	C12.249560,42.489033 14.447792,42.780918 16.646023,43.072803 
	C16.625256,43.367672 16.604488,43.662540 16.583723,43.957409 
	C15.282182,43.957409 13.980640,43.957409 12.320733,43.944790 
z"/>
<path fill="#77818B" opacity="1.000000" stroke="none" 
	d="
M9.053151,62.988152 
	C7.973591,62.891354 6.855559,62.405109 5.920832,61.546867 
	C7.091257,60.561543 8.078377,59.948219 9.320026,59.489056 
	C9.387930,60.628380 9.201304,61.613548 9.053151,62.988152 
z"/>
<path fill="#E6F1E9" opacity="1.000000" stroke="none" 
	d="
M23.471680,39.877403 
	C24.203083,40.613693 24.625183,41.415558 25.079731,42.569279 
	C24.371454,42.959545 23.630726,42.997952 22.520905,43.031010 
	C22.107790,42.852406 22.063768,42.679150 21.975704,42.241402 
	C22.341896,41.298927 22.752134,40.620953 23.471680,39.877403 
z"/>
<path fill="#E8E8E9" opacity="1.000000" stroke="none" 
	d="
M76.004272,13.009408 
	C75.788414,12.575719 75.572556,12.142029 75.296432,11.472828 
	C75.906616,11.154267 76.577072,11.071218 77.587181,11.011153 
	C77.926834,11.034138 78.019753,11.445848 78.020103,12.020897 
	C78.005936,13.081069 77.991425,13.566193 77.718964,13.941521 
	C76.975441,13.557618 76.489853,13.283513 76.004272,13.009408 
z"/>
<path fill="#A3959D" opacity="1.000000" stroke="none" 
	d="
M73.042122,16.724863 
	C73.379005,16.799307 73.773186,16.956707 73.905457,17.216236 
	C74.037727,17.475767 74.006851,17.946690 73.956375,18.276796 
	C73.211273,19.002228 72.516640,19.397554 71.822014,19.792877 
	C71.805626,19.479523 71.808472,19.166346 71.906868,18.633034 
	C72.223869,17.825289 72.464554,17.237854 73.042122,16.724863 
z"/>
<path fill="#77879B" opacity="1.000000" stroke="none" 
	d="
M79.979507,5.863780 
	C79.484833,6.632668 78.601799,7.328380 77.349953,8.032878 
	C77.851151,7.291311 78.721153,6.540958 79.979507,5.863780 
z"/>
<path fill="#777B86" opacity="1.000000" stroke="none" 
	d="
M43.010323,18.995384 
	C43.019508,18.989687 42.744884,18.826500 42.744884,18.826500 
	C42.744884,18.826500 42.908981,18.865915 42.949059,18.942617 
	C42.989136,19.019320 43.001133,19.001081 43.010323,18.995384 
z"/>
<path fill="#BFF8BF" opacity="1.000000" stroke="none" 
	d="
M45.022339,97.989319 
	C44.819294,97.737045 44.602108,97.497589 44.275158,96.792801 
	C44.333546,94.507088 48.809357,93.325905 45.028744,90.590591 
	C45.417454,88.867630 45.736248,87.492004 46.236275,85.870071 
	C47.277485,85.080620 48.137463,84.537483 49.272224,84.222168 
	C52.135105,85.346031 54.319569,85.344643 55.006512,81.598282 
	C56.477554,77.582733 57.941452,73.966652 59.494411,70.130585 
	C63.109390,72.429901 65.736313,75.762810 67.321236,69.935081 
	C68.460609,68.630836 69.278534,67.390167 70.414154,66.188766 
	C71.156593,66.244118 71.581345,66.260216 71.933434,66.463814 
	C71.920578,66.920464 71.980385,67.189613 72.040192,67.458771 
	C72.377838,66.989792 72.715477,66.520805 73.277084,66.297836 
	C73.658333,67.620544 73.815613,68.697243 73.681259,69.982101 
	C72.615227,72.976776 70.399155,76.521667 71.379433,78.385139 
	C73.181763,81.811340 73.032822,84.204117 70.594238,87.001007 
	C68.143753,89.297874 66.068909,91.590179 63.994064,93.882484 
	C61.773602,94.881989 59.553135,95.881485 57.055290,96.284195 
	C55.882008,95.287659 54.823013,94.361038 54.118362,94.579155 
	C51.030361,95.534981 48.044960,96.822266 45.022339,97.989319 
z"/>
<path fill="#F6FCF6" opacity="1.000000" stroke="none" 
	d="
M70.969879,86.996452 
	C73.032822,84.204117 73.181763,81.811340 71.379433,78.385139 
	C70.399155,76.521667 72.615227,72.976776 73.976776,69.873260 
	C75.723991,68.042747 76.884056,66.529236 78.379120,64.953934 
	C82.285515,65.921204 85.856918,66.950249 89.663223,68.271919 
	C89.904335,70.053284 89.910553,71.542015 90.000389,73.411850 
	C89.445503,75.180519 88.806999,76.568092 87.855148,78.117989 
	C85.355965,81.566116 80.692802,83.284157 81.015587,88.601753 
	C78.044739,88.711380 76.910538,90.380051 76.407715,92.772034 
	C75.806526,92.762901 75.205345,92.753769 74.294846,92.458931 
	C72.980316,90.447632 71.975098,88.722046 70.969879,86.996452 
z"/>
<path fill="#505C69" opacity="1.000000" stroke="none" 
	d="
M76.784210,92.797073 
	C76.910538,90.380051 78.044739,88.711380 81.362366,88.541367 
	C84.271690,86.778023 86.637581,85.394806 88.995850,84.386215 
	C88.887497,85.991684 88.786766,87.222527 88.609314,89.390923 
	C93.561653,88.888329 98.010872,88.436806 102.602791,88.320541 
	C103.440353,89.230545 104.135216,89.805283 104.830078,90.380013 
	C103.749832,93.746361 102.669601,97.112709 101.280853,100.736145 
	C98.973473,96.042336 94.964317,95.788422 90.347542,95.861198 
	C87.893188,95.899879 84.660385,94.993492 83.121773,93.296333 
	C80.832581,90.771255 79.138321,92.581741 76.784210,92.797073 
z"/>
<path fill="#64707F" opacity="1.000000" stroke="none" 
	d="
M41.295410,106.312317 
	C39.722366,108.019669 38.149319,109.727028 36.041874,111.807022 
	C34.319256,112.135590 33.131035,112.091515 31.691414,111.825073 
	C31.444788,110.720680 31.449564,109.838661 31.713985,108.874580 
	C32.316154,108.195290 32.658676,107.598068 33.084007,106.960632 
	C33.166817,106.920433 33.184437,106.707611 33.184437,106.707611 
	C33.184437,106.707611 32.999207,106.998894 32.702759,106.985123 
	C32.208801,106.959908 32.011292,106.948463 31.846851,106.624306 
	C31.947248,105.898026 32.014572,105.484451 32.343948,104.924553 
	C33.403389,104.184708 34.200779,103.591194 35.115143,103.202026 
	C35.418579,103.668930 35.658409,103.866821 36.163940,104.265625 
	C37.868881,104.976631 39.361473,105.422050 40.965172,105.977921 
	C41.076275,106.088364 41.295410,106.312317 41.295410,106.312317 
z"/>
<path fill="#6E7884" opacity="1.000000" stroke="none" 
	d="
M31.813778,106.937019 
	C32.011292,106.948463 32.208801,106.959908 32.703156,106.985680 
	C33.000000,107.000000 33.001198,107.000839 33.001198,107.000839 
	C32.658676,107.598068 32.316154,108.195290 31.304615,108.938461 
	C27.846931,109.798431 25.058268,110.512474 22.269604,111.226517 
	C21.726757,108.352371 19.559572,107.501968 16.960987,106.771378 
	C17.368914,106.051361 17.885920,105.613098 19.063896,105.170883 
	C22.850935,105.337158 25.977005,105.507378 29.246853,105.765732 
	C29.390633,105.853874 29.727995,105.888718 29.727995,105.888718 
	C29.727995,105.888718 30.063881,105.841637 30.216948,106.065826 
	C30.851269,106.505676 31.332523,106.721352 31.813778,106.937019 
z"/>
<path fill="#C3F9C4" opacity="1.000000" stroke="none" 
	d="
M70.594238,87.001007 
	C71.975098,88.722046 72.980316,90.447632 73.970245,92.514023 
	C73.197365,93.252281 72.439781,93.649750 71.295265,93.713531 
	C70.297745,93.506592 69.687164,93.633354 69.076576,93.760117 
	C67.613998,93.845917 66.151428,93.931725 64.341461,93.950005 
	C66.068909,91.590179 68.143753,89.297874 70.594238,87.001007 
z"/>
<path fill="#ABB0B7" opacity="1.000000" stroke="none" 
	d="
M22.436405,111.506935 
	C25.058268,110.512474 27.846931,109.798431 31.044968,109.020523 
	C31.449564,109.838661 31.444788,110.720680 31.754299,112.191093 
	C33.173592,113.520653 34.278591,114.261818 35.383591,115.002975 
	C30.003365,118.382889 26.541805,114.137131 22.436405,111.506935 
z"/>
<path fill="#C3F9C4" opacity="1.000000" stroke="none" 
	d="
M45.000702,98.288391 
	C48.044960,96.822266 51.030361,95.534981 54.118362,94.579155 
	C54.823013,94.361038 55.882008,95.287659 56.824478,96.045715 
	C54.911751,97.244156 52.952454,98.084290 50.562637,98.954491 
	C48.401966,99.051697 46.671810,99.118843 44.941658,99.185997 
	C44.954128,98.986488 44.966595,98.786980 45.000702,98.288391 
z"/>
<path fill="#F0F5F1" opacity="1.000000" stroke="none" 
	d="
M44.999672,99.447311 
	C46.671810,99.118843 48.401966,99.051697 50.193001,98.778809 
	C50.989319,102.036514 49.619972,102.685951 46.334618,101.117798 
	C45.675301,100.565025 45.366493,100.136826 44.999672,99.447311 
z"/>
<path fill="#888E98" opacity="1.000000" stroke="none" 
	d="
M35.641724,114.879585 
	C34.278591,114.261818 33.173592,113.520653 32.005703,112.413467 
	C33.131035,112.091515 34.319256,112.135590 35.788242,112.031853 
	C39.494946,113.046516 36.491268,113.830322 35.641724,114.879585 
z"/>
<path fill="#F0F5F1" opacity="1.000000" stroke="none" 
	d="
M43.279900,105.869942 
	C43.399738,104.846413 43.816044,104.079002 44.439014,103.137756 
	C44.289242,104.017967 43.932808,105.072014 43.279900,105.869942 
z"/>
<path fill="#BFF8BF" opacity="1.000000" stroke="none" 
	d="
M69.393471,93.787148 
	C69.687164,93.633354 70.297745,93.506592 70.945000,93.593346 
	C70.557899,93.809296 70.134132,93.811737 69.393471,93.787148 
z"/>
<path fill="#64707F" opacity="1.000000" stroke="none" 
	d="
M40.973335,104.883675 
	C41.368828,104.968849 41.764320,105.054024 42.302448,105.412033 
	C42.253231,105.789360 42.061378,105.893852 41.582470,106.155334 
	C41.295410,106.312317 41.076275,106.088364 40.965771,105.728424 
	C40.855267,105.368484 40.973335,104.883675 40.973335,104.883675 
z"/>
<path fill="#F2FAF2" opacity="1.000000" stroke="none" 
	d="
M85.830933,11.972202 
	C86.095337,11.738927 86.359734,11.505652 86.814125,11.088237 
	C89.539307,12.705987 93.183846,13.620927 92.571815,18.035828 
	C92.548004,18.207577 95.641258,18.811443 97.798599,19.205101 
	C98.552902,19.345110 98.760857,19.527910 98.791939,19.976192 
	C98.798241,20.828705 98.951591,21.449667 99.111801,22.404255 
	C99.855598,22.851404 100.592529,22.964930 101.520309,23.047729 
	C101.711143,23.017004 102.085449,22.920309 102.474327,22.933254 
	C103.898666,22.980101 104.934120,23.014002 106.013496,23.369297 
	C110.528290,28.616282 105.214775,33.978523 106.737419,39.170536 
	C107.540253,41.908096 106.965057,45.049786 106.921310,48.038498 
	C106.830559,48.067986 106.804031,48.291458 106.804031,48.291458 
	C106.804031,48.291458 106.992592,47.989571 107.265350,48.100967 
	C108.082642,48.434746 108.627182,48.657131 109.404343,48.935066 
	C109.636971,48.990608 110.115128,49.003429 110.322845,49.045330 
	C110.530563,49.087231 110.949516,49.023266 110.949516,49.023266 
	C110.949516,49.023266 110.988815,48.991806 110.970901,49.462040 
	C111.028435,51.718712 111.103882,53.505154 111.179321,55.291592 
	C115.614853,58.890358 109.282692,58.221069 109.287529,60.004097 
	C112.299896,61.553024 115.287819,63.089386 118.627136,64.700394 
	C118.105072,67.539177 117.231628,70.303307 116.313675,73.208298 
	C111.207916,71.077576 106.451019,69.070862 101.660172,67.148766 
	C101.383949,67.037941 100.831459,67.615692 99.955238,67.852264 
	C99.387077,67.509560 99.378761,67.184845 99.759827,66.557510 
	C100.041649,63.243832 100.041649,60.230045 100.041649,57.609554 
	C97.665497,56.952721 95.845192,56.449539 94.030487,55.578896 
	C94.015663,54.476757 93.995239,53.742085 94.139771,52.719902 
	C95.643349,52.333679 96.981987,52.234966 98.654709,52.075249 
	C100.833588,50.292019 102.238586,42.718723 100.571930,41.340462 
	C98.202232,39.380795 95.311310,38.556934 92.296288,40.794872 
	C91.983391,40.896584 91.799263,40.893150 91.197372,40.595657 
	C89.505814,40.291019 88.232956,40.230762 87.014793,39.842747 
	C87.022263,38.342800 86.975029,37.170609 87.051590,35.739395 
	C87.423859,34.339230 87.672333,33.198086 88.021713,31.720270 
	C88.671257,30.278400 89.219887,29.173206 89.802315,27.999922 
	C88.024803,27.204441 86.621735,26.576534 84.730919,25.730349 
	C86.250656,24.008804 87.431503,22.671148 88.807808,21.112078 
	C87.574501,21.050005 86.758858,21.008953 85.936546,20.739796 
	C85.929878,20.511690 85.876099,20.057600 86.029099,19.646324 
	C86.290947,18.963518 86.399803,18.691988 86.816071,18.456797 
	C86.790871,16.991882 86.458267,15.490626 86.050926,13.657415 
	C85.927780,12.874373 85.879356,12.423287 85.830933,11.972202 
M103.635109,24.685316 
	C103.714882,24.999748 103.794655,25.314182 103.874420,25.628613 
	C103.919075,25.342710 103.963722,25.056807 103.635109,24.685316 
z"/>
<path fill="#BDF3BF" opacity="1.000000" stroke="none" 
	d="
M107.012062,48.009007 
	C106.965057,45.049786 107.540253,41.908096 106.737419,39.170536 
	C105.214775,33.978523 110.528290,28.616282 106.089203,23.074299 
	C106.705009,21.970707 107.289017,21.483507 107.873024,20.996305 
	C110.530922,25.329981 109.169670,31.529013 114.350967,34.794952 
	C114.940681,35.166664 115.050209,37.809761 114.477951,38.266521 
	C111.153000,40.920441 111.611389,44.687279 111.003098,48.598198 
	C110.949516,49.023266 110.530563,49.087231 110.208160,48.930412 
	C109.885757,48.773594 109.553329,48.591465 109.553329,48.591465 
	C109.553329,48.591465 109.171722,48.879520 109.171722,48.879520 
	C108.627182,48.657131 108.082642,48.434746 107.269310,48.106339 
	C107.000519,48.000320 107.012062,48.009007 107.012062,48.009007 
z"/>
<path fill="#E2F3E4" opacity="1.000000" stroke="none" 
	d="
M98.938988,19.744640 
	C98.760857,19.527910 98.552902,19.345110 98.137207,19.087643 
	C97.539497,16.660702 97.119698,14.342359 96.619003,11.577295 
	C97.989105,11.472524 99.651642,11.345389 101.543747,11.200700 
	C102.060020,9.667946 102.704109,7.755724 103.340942,5.865035 
	C109.327965,7.188211 111.049828,9.074082 109.755997,13.585749 
	C106.083839,14.182215 102.961731,14.512603 100.430939,14.780416 
	C99.751556,17.040941 99.345268,18.392790 98.938988,19.744640 
M104.507019,11.465375 
	C104.507019,11.465375 104.533104,11.525363 104.507019,11.465375 
z"/>
<path fill="#C2F6C4" opacity="1.000000" stroke="none" 
	d="
M98.791939,19.976192 
	C99.345268,18.392790 99.751556,17.040941 100.430939,14.780416 
	C102.961731,14.512603 106.083839,14.182215 109.564568,13.900260 
	C109.305229,16.042988 108.687279,18.137281 107.971176,20.613941 
	C107.289017,21.483507 106.705009,21.970707 106.045288,22.752903 
	C104.934120,23.014002 103.898666,22.980101 102.649918,22.746145 
	C102.782677,21.514975 103.128708,20.483860 103.474747,19.452745 
	C102.999504,19.312593 102.524261,19.172443 102.049026,19.032293 
	C101.656593,20.091194 101.264153,21.150093 100.579742,22.162178 
	C99.893494,22.100451 99.499222,22.085541 99.104942,22.070629 
	C98.951591,21.449667 98.798241,20.828705 98.791939,19.976192 
M105.523491,15.499569 
	C105.523491,15.499569 105.478493,15.516370 105.523491,15.499569 
z"/>
<path fill="#BDF3BF" opacity="1.000000" stroke="none" 
	d="
M111.541901,55.212135 
	C111.103882,53.505154 111.028435,51.718712 110.967911,49.487019 
	C112.484009,50.118973 113.985191,51.196178 116.038811,52.669800 
	C114.225235,53.750168 113.064857,54.441425 111.541901,55.212135 
z"/>
<path fill="#C3F9C4" opacity="1.000000" stroke="none" 
	d="
M44.958824,90.937935 
	C48.809357,93.325905 44.333546,94.507088 44.096180,96.629066 
	C41.858051,97.118828 39.703281,97.294182 37.235756,96.898285 
	C35.967602,95.193581 35.012196,94.060135 34.056793,92.926682 
	C33.268070,91.697014 32.479351,90.467339 31.041975,89.106636 
	C29.813208,88.623856 29.233095,88.272110 28.652983,87.920364 
	C28.652983,87.920364 28.861183,87.480659 29.061867,87.132553 
	C29.306282,86.678864 29.412037,86.548668 29.381788,86.472443 
	C29.300222,86.266884 29.160702,86.084312 29.044182,85.892624 
	C29.044182,85.892624 29.097523,85.516899 29.316017,85.057045 
	C29.265451,81.912712 31.730497,77.756775 25.992413,78.015656 
	C25.992413,78.015656 26.000298,77.998413 26.035696,77.728401 
	C26.830133,76.852158 27.589170,76.245918 27.868740,76.022629 
	C26.910673,74.971794 26.051111,74.029007 25.191549,73.086212 
	C25.474049,72.937447 25.690990,72.722511 25.917362,71.880600 
	C26.108925,69.849953 26.774572,68.117302 26.223909,66.966827 
	C25.185598,64.797523 23.446728,62.963539 21.999058,60.990173 
	C22.925993,59.587276 23.852930,58.184376 24.974945,56.307686 
	C25.104517,54.878521 25.039007,53.923149 24.983557,52.657234 
	C25.017010,51.933853 25.040403,51.521015 25.308994,50.906864 
	C26.399605,49.555958 27.245020,48.406364 28.090435,47.256771 
	C28.090435,47.256771 28.555189,47.075138 29.107971,47.130920 
	C32.454819,47.168579 35.248890,47.150452 38.042957,47.132324 
	C39.039902,47.158020 40.036846,47.183712 41.570683,47.372406 
	C42.358837,47.762165 42.610104,47.988922 42.861366,48.215675 
	C43.798668,48.990250 44.735966,49.764824 45.797775,50.944443 
	C46.388088,51.586845 46.853893,51.824200 47.480492,52.256241 
	C47.818436,52.937553 47.995583,53.424179 48.255264,54.139839 
	C48.504150,54.656586 48.727448,54.889774 49.117027,55.319565 
	C49.509289,56.040253 49.792210,56.509827 49.722866,56.983772 
	C48.900692,56.998447 48.430775,57.008751 47.695030,56.992710 
	C42.273579,55.481239 41.069290,60.647564 37.953182,62.595642 
	C40.560860,67.332993 33.378483,74.837074 42.642250,77.446320 
	C41.896397,78.897316 41.377644,79.906502 40.483665,80.934937 
	C38.511944,80.954178 36.915447,80.954178 34.581989,80.954178 
	C35.136105,83.376404 35.559559,85.227463 35.987789,87.423912 
	C34.862499,91.491638 38.849720,90.015602 39.588459,91.280190 
	C41.890701,95.221260 43.332172,93.705505 44.961426,90.962936 
	C44.968960,90.963837 44.958824,90.937935 44.958824,90.937935 
M26.533331,53.525166 
	C26.533331,53.525166 26.472675,53.555050 26.533331,53.525166 
z"/>
<path fill="#F0F5F1" opacity="1.000000" stroke="none" 
	d="
M33.983334,93.189636 
	C35.012196,94.060135 35.967602,95.193581 36.959969,96.670853 
	C34.326488,97.152016 31.656040,97.289368 28.985592,97.426712 
	C28.838152,97.072952 28.690712,96.719193 28.543270,96.365433 
	C30.332138,95.394485 32.121006,94.423538 33.983334,93.189636 
z"/>
<path fill="#F0F5F1" opacity="1.000000" stroke="none" 
	d="
M29.103075,105.677597 
	C25.977005,105.507378 22.850935,105.337158 19.357372,104.998306 
	C18.989882,104.829666 18.996468,104.414207 18.998234,104.207108 
	C19.000000,104.000000 18.997833,104.002274 18.997833,104.002274 
	C21.227781,103.657738 23.457727,103.313202 26.264719,103.125313 
	C27.241526,103.177650 27.641287,103.073326 28.041050,102.969009 
	C28.041050,102.969009 28.019825,103.029602 28.173584,103.089348 
	C28.327343,103.149094 28.719910,103.184204 28.827869,103.591637 
	C28.991579,104.558578 29.047327,105.118088 29.103075,105.677597 
z"/>
<path fill="#98A1AB" opacity="1.000000" stroke="none" 
	d="
M28.719910,103.184204 
	C28.719910,103.184204 28.327343,103.149094 28.143633,103.077805 
	C28.601143,100.310005 28.601143,100.310005 34.593597,101.922768 
	C34.966003,102.574974 34.982086,102.786324 34.998169,102.997681 
	C34.200779,103.591194 33.403389,104.184708 32.287743,104.880966 
	C31.969490,104.983704 31.856714,104.898079 31.739639,104.593018 
	C30.655014,103.920044 29.687462,103.552124 28.719910,103.184204 
z"/>
<path fill="#8A95A2" opacity="1.000000" stroke="none" 
	d="
M4.912229,68.506592 
	C6.075872,67.730362 7.201578,67.388542 8.688872,67.015747 
	C8.750426,68.014389 8.597971,69.121902 8.107574,70.051048 
	C7.645611,70.926308 6.827536,71.613609 6.097648,72.733513 
	C5.623612,72.204384 5.218053,71.325333 4.814774,70.128769 
	C4.836133,69.521164 4.855212,69.231079 4.912229,68.506592 
z"/>
<path fill="#F0F5F1" opacity="1.000000" stroke="none" 
	d="
M28.350279,87.871628 
	C29.233095,88.272110 29.813208,88.623856 30.676098,89.160042 
	C30.409760,90.081573 29.860641,90.818665 29.387228,91.454140 
	C28.014519,90.555580 26.881681,89.814034 25.401947,88.717232 
	C25.043667,87.904747 25.032282,87.447517 25.020897,86.990295 
	C26.029789,87.267830 27.038681,87.545364 28.350279,87.871628 
z"/>
<path fill="#F0F5F1" opacity="1.000000" stroke="none" 
	d="
M40.927826,104.604019 
	C40.973335,104.883675 40.855267,105.368484 40.854668,105.617981 
	C39.361473,105.422050 37.868881,104.976631 36.426777,104.037552 
	C37.624176,103.354233 38.771080,103.164574 39.917988,102.974922 
	C40.239429,103.424736 40.560875,103.874550 40.927826,104.604019 
z"/>
<path fill="#E5EBE9" opacity="1.000000" stroke="none" 
	d="
M24.671078,86.999100 
	C25.032282,87.447517 25.043667,87.904747 25.072426,88.705215 
	C23.655003,89.362602 22.220207,89.676750 20.400005,89.745804 
	C20.014599,89.500717 20.026083,89.020927 20.026083,89.020927 
	C21.457809,88.349915 22.889536,87.678902 24.671078,86.999100 
z"/>
<path fill="#7C8A9A" opacity="1.000000" stroke="none" 
	d="
M39.870579,102.644165 
	C38.771080,103.164574 37.624176,103.354233 36.214432,103.771973 
	C35.658409,103.866821 35.418579,103.668930 35.115143,103.202026 
	C34.982086,102.786324 34.966003,102.574974 34.911777,102.046959 
	C36.523479,101.924667 38.173325,102.119041 39.870579,102.644165 
z"/>
<path fill="#F0F5F1" opacity="1.000000" stroke="none" 
	d="
M15.475832,93.241455 
	C16.233393,93.413445 16.720411,93.669189 17.207432,93.924927 
	C16.762178,94.224487 16.316925,94.524040 15.871671,94.823593 
	C15.649543,94.324127 15.427417,93.824669 15.475832,93.241455 
z"/>
<path fill="#A5ADB2" opacity="1.000000" stroke="none" 
	d="
M9.352097,67.037094 
	C8.918744,66.128479 8.802562,65.224426 8.842734,63.890938 
	C9.829975,64.131401 10.660861,64.801308 11.693553,65.732544 
	C11.153328,66.343147 10.411297,66.692406 9.352097,67.037094 
z"/>
<path fill="#F0F5F1" opacity="1.000000" stroke="none" 
	d="
M20.029179,94.959900 
	C20.826422,95.613159 21.623665,96.266411 22.420908,96.919662 
	C22.060030,97.238976 21.699150,97.558289 21.338272,97.877602 
	C20.889221,97.144661 20.440170,96.411728 19.992859,95.339050 
	C19.994596,94.999313 20.029181,94.959900 20.029179,94.959900 
z"/>
<path fill="#F0F5F1" opacity="1.000000" stroke="none" 
	d="
M19.643778,89.015244 
	C20.026083,89.020927 20.014599,89.500717 20.016880,89.740448 
	C19.167898,89.802780 18.316635,89.625374 17.216125,89.231064 
	C17.731745,89.012619 18.496609,89.011086 19.643778,89.015244 
z"/>
<path fill="#F0F5F1" opacity="1.000000" stroke="none" 
	d="
M19.001011,103.999359 
	C18.818775,103.795929 18.619892,103.604156 18.463533,103.382401 
	C18.425589,103.328583 18.527733,103.175987 18.565460,103.068817 
	C18.696398,103.255875 18.827335,103.442932 18.978054,103.816132 
	C18.997833,104.002274 19.000000,104.000000 19.001011,103.999359 
z"/>
<path fill="#F0F5F1" opacity="1.000000" stroke="none" 
	d="
M18.586460,98.866409 
	C18.655519,98.928757 18.411724,99.147209 18.411724,99.147209 
	C18.411724,99.147209 18.517401,98.804070 18.586460,98.866409 
z"/>
<path fill="#98A1AB" opacity="1.000000" stroke="none" 
	d="
M27.642422,102.928802 
	C27.641287,103.073326 27.241526,103.177650 26.644194,103.125908 
	C26.712349,102.942764 26.978073,102.915680 27.642422,102.928802 
z"/>
<path fill="#F0F5F1" opacity="1.000000" stroke="none" 
	d="
M20.511894,100.491493 
	C20.521463,100.514534 20.502323,100.468452 20.511894,100.491493 
z"/>
<path fill="#F0F5F1" opacity="1.000000" stroke="none" 
	d="
M30.486179,98.508659 
	C30.476768,98.485619 30.495592,98.531700 30.486179,98.508659 
z"/>
<path fill="#F0F5F1" opacity="1.000000" stroke="none" 
	d="
M19.974640,95.016312 
	C19.954681,95.033318 19.669878,94.800949 19.669878,94.800949 
	C19.669878,94.800949 19.923819,94.797119 19.976500,94.878510 
	C20.029181,94.959900 19.994596,94.999313 19.974640,95.016312 
z"/>
<path fill="#475160" opacity="1.000000" stroke="none" 
	d="
M99.477997,66.857399 
	C99.378761,67.184845 99.387077,67.509560 99.684402,68.001587 
	C100.584801,69.812805 101.303749,71.453979 101.909790,73.725891 
	C101.864906,75.904953 101.932930,77.453278 102.012665,79.246567 
	C102.024384,79.491516 102.009552,79.981750 101.796600,80.231583 
	C101.201897,81.316544 100.820137,82.151665 100.438370,82.986786 
	C101.961182,82.990837 103.484001,82.994881 105.136665,83.280815 
	C105.471634,84.112434 105.676750,84.662163 105.881866,85.211891 
	C105.872116,85.606697 105.862373,86.001503 105.619728,86.697739 
	C105.386833,86.999176 104.920868,87.032768 104.569962,87.027443 
	C103.632736,87.343170 103.046410,87.664223 102.460083,87.985275 
	C98.010872,88.436806 93.561653,88.888329 88.609314,89.390923 
	C88.786766,87.222527 88.887497,85.991684 89.153381,84.121567 
	C89.924995,82.658562 90.531456,81.834839 91.437866,81.010452 
	C92.469437,80.916428 93.201057,80.823051 93.932686,80.729683 
	C93.953110,80.351173 93.973534,79.972672 93.993958,79.594162 
	C92.605583,79.422447 91.217201,79.250732 89.597366,78.961647 
	C88.966766,78.548073 88.567627,78.251877 88.168495,77.955673 
	C88.806999,76.568092 89.445503,75.180519 90.300751,73.284439 
	C92.016579,72.977776 93.515656,73.179604 96.334457,73.559120 
	C94.816650,72.045799 93.931099,71.162872 92.942444,70.025574 
	C92.567886,69.538620 92.296440,69.306023 91.992485,68.764938 
	C91.933945,68.251289 91.907906,68.046135 91.872879,67.887695 
	C91.863892,67.934418 91.819084,67.850479 92.192802,67.883919 
	C94.870346,67.564041 97.174171,67.210716 99.477997,66.857399 
z"/>
<path fill="#E2F5E4" opacity="1.000000" stroke="none" 
	d="
M106.113892,84.918808 
	C105.676750,84.662163 105.471634,84.112434 105.144684,82.939919 
	C104.018417,81.538673 103.013985,80.760208 102.009552,79.981750 
	C102.009552,79.981750 102.024384,79.491516 102.227180,79.024612 
	C102.935257,77.665947 103.440536,76.774185 103.945816,75.882423 
	C104.420753,76.838470 104.661690,78.334923 105.410255,78.659065 
	C109.082077,80.249062 108.437630,82.266144 106.113892,84.918808 
z"/>
<path fill="#737D87" opacity="1.000000" stroke="none" 
	d="
M113.128082,95.050774 
	C113.552979,93.782982 113.977882,92.515190 114.678253,91.318100 
	C115.901215,91.924644 116.848709,92.460487 117.787476,93.349518 
	C117.902336,94.149078 118.025917,94.595459 118.149498,95.041832 
	C116.629105,98.797997 115.197983,94.963127 113.406174,95.016396 
	C113.090889,95.043030 113.128082,95.050774 113.128082,95.050774 
z"/>
<path fill="#E2F5E4" opacity="1.000000" stroke="none" 
	d="
M115.016571,89.056313 
	C115.750534,87.061989 116.484497,85.067665 117.540146,82.964935 
	C117.861832,82.856529 118.014107,83.010979 118.016571,83.427490 
	C117.326805,85.548080 116.634575,87.252167 115.710052,88.973412 
	C115.477760,88.990570 115.016579,89.056313 115.016571,89.056313 
z"/>
<path fill="#718085" opacity="1.000000" stroke="none" 
	d="
M115.020355,89.344788 
	C115.016579,89.056313 115.477760,88.990570 116.076096,89.001633 
	C117.161652,89.065269 117.648880,89.117836 118.136108,89.170410 
	C118.093300,89.587494 118.050491,90.004578 117.996674,91.061035 
	C117.922508,92.132385 117.859360,92.564354 117.796204,92.996323 
	C116.848709,92.460487 115.901215,91.924644 114.929604,91.085587 
	C114.945038,90.399338 114.984589,90.016296 115.020355,89.344788 
z"/>
<path fill="#505C69" opacity="1.000000" stroke="none" 
	d="
M103.897247,75.722076 
	C103.440536,76.774185 102.935257,77.665947 102.215469,78.779663 
	C101.932930,77.453278 101.864906,75.904953 101.960457,74.074707 
	C102.519997,74.195023 102.915977,74.597260 103.572121,75.113258 
	C103.832283,75.227028 103.848686,75.561722 103.897247,75.722076 
z"/>
<path fill="#E2F5E4" opacity="1.000000" stroke="none" 
	d="
M102.602791,88.320541 
	C103.046410,87.664223 103.632736,87.343170 104.578384,87.371780 
	C104.949844,88.181396 104.961967,88.641357 104.974098,89.101311 
	C104.963547,89.315567 104.952988,89.529816 104.886261,90.062042 
	C104.135216,89.805283 103.440353,89.230545 102.602791,88.320541 
z"/>
<path fill="#E2F5E4" opacity="1.000000" stroke="none" 
	d="
M108.114182,76.246323 
	C108.945488,76.412346 109.843910,76.906433 110.817062,77.719803 
	C109.988297,77.550850 109.084793,77.062614 108.114182,76.246323 
z"/>
<path fill="#C8DCCD" opacity="1.000000" stroke="none" 
	d="
M117.787476,93.349518 
	C117.859360,92.564354 117.922508,92.132385 118.024551,91.374222 
	C118.341560,91.189140 118.576439,91.382721 118.886597,91.826340 
	C119.256630,92.814835 119.508156,93.605766 119.869965,94.692986 
	C119.573517,95.009125 119.166779,95.028976 118.454773,95.045334 
	C118.025917,94.595459 117.902336,94.149078 117.787476,93.349518 
z"/>
<path fill="#E2F5E4" opacity="1.000000" stroke="none" 
	d="
M106.210068,74.916946 
	C106.532028,74.745331 107.200020,74.606041 107.903900,74.742142 
	C107.478561,74.994766 107.017334,74.972023 106.210068,74.916946 
z"/>
<path fill="#E2F5E4" opacity="1.000000" stroke="none" 
	d="
M115.522400,78.055664 
	C115.768440,77.885132 116.302116,77.700035 116.900406,77.763039 
	C116.580025,78.021126 116.195038,78.031120 115.522400,78.055664 
z"/>
<path fill="#505C69" opacity="1.000000" stroke="none" 
	d="
M105.315720,89.021622 
	C104.961967,88.641357 104.949844,88.181396 104.929291,87.377106 
	C104.920868,87.032768 105.386833,86.999176 105.620201,86.994507 
	C105.788162,87.640541 105.722748,88.291237 105.315720,89.021622 
z"/>
<path fill="#E2F5E4" opacity="1.000000" stroke="none" 
	d="
M111.444824,89.834984 
	C111.533371,89.788139 111.564873,90.173462 111.564873,90.173462 
	C111.564873,90.173462 111.356285,89.881828 111.444824,89.834984 
z"/>
<path fill="#737D87" opacity="1.000000" stroke="none" 
	d="
M113.076843,95.048019 
	C113.062790,95.053017 113.067490,95.138786 113.097786,95.094780 
	C113.128082,95.050774 113.090889,95.043030 113.076843,95.048019 
z"/>
<path fill="#495764" opacity="1.000000" stroke="none" 
	d="
M85.672348,11.833389 
	C85.879356,12.423287 85.927780,12.874373 85.933777,13.611131 
	C85.891365,13.896802 85.668350,14.013956 85.545425,14.144808 
	C85.256866,14.452203 85.116753,14.647096 84.670486,14.884300 
	C83.903564,14.984668 83.468315,15.061070 82.716087,15.087887 
	C81.974937,14.985100 81.550766,14.931899 81.121376,14.568985 
	C81.178543,13.852720 81.240929,13.446169 81.588501,12.982710 
	C82.573563,12.297176 83.273430,11.668551 83.973305,11.039928 
	C84.486794,11.258146 85.000275,11.476362 85.672348,11.833389 
z"/>
<path fill="#F8F7F7" opacity="1.000000" stroke="none" 
	d="
M81.303314,13.039618 
	C81.240929,13.446169 81.178543,13.852720 80.933746,14.796757 
	C79.879356,15.226907 79.007385,15.119572 78.097176,14.771776 
	C78.058945,14.531317 77.976906,14.051317 77.976906,14.051317 
	C77.991425,13.566193 78.005936,13.081069 78.029999,12.231697 
	C78.771797,11.916391 79.504051,11.965332 80.656036,12.299419 
	C81.151611,12.736250 81.227463,12.887934 81.303314,13.039618 
z"/>
<path fill="#5C6D77" opacity="1.000000" stroke="none" 
	d="
M81.588501,12.982709 
	C81.227463,12.887934 81.151611,12.736250 81.022812,12.335751 
	C81.749504,11.740659 82.529167,11.394383 83.641068,11.044018 
	C83.273430,11.668551 82.573563,12.297176 81.588501,12.982709 
z"/>
<path fill="#838C95" opacity="1.000000" stroke="none" 
	d="
M2.028692,69.314972 
	C2.189055,68.999161 2.367850,69.003769 2.814190,69.028297 
	C2.976831,69.829063 2.871927,70.609901 2.767022,71.390747 
	C2.606456,71.387527 2.445889,71.384315 2.285323,71.381104 
	C2.205924,70.799202 2.126524,70.217293 2.028692,69.314972 
z"/>
<path fill="#5D6970" opacity="1.000000" stroke="none" 
	d="
M118.124748,89.160591 
	C117.648880,89.117836 117.161652,89.065269 116.308380,88.984474 
	C116.634575,87.252167 117.326805,85.548080 118.093071,83.504349 
	C118.167099,83.164711 118.595459,83.065498 118.780960,82.947144 
	C119.055199,83.630608 119.143929,84.432419 119.124359,85.870773 
	C118.976852,86.750587 118.937660,86.993874 118.745605,87.267380 
	C118.386932,87.388924 118.258682,87.544312 118.179321,88.104095 
	C118.138161,88.671776 118.125633,88.899117 118.113106,89.126465 
	C118.113106,89.126465 118.113388,89.150772 118.124748,89.160591 
z"/>
<path fill="#697D7D" opacity="1.000000" stroke="none" 
	d="
M118.898476,87.237152 
	C118.937660,86.993874 118.976852,86.750587 119.073151,86.141907 
	C119.130241,85.776512 119.498367,85.970787 119.683891,86.064369 
	C119.894173,86.790779 119.918930,87.423615 119.877419,88.365860 
	C119.435410,88.782784 119.059677,88.890297 118.398521,89.062134 
	C118.125633,88.899117 118.138161,88.671776 118.322922,88.061218 
	C118.662735,87.561378 118.797173,87.414429 118.898476,87.237152 
z"/>
<path fill="#FADDDD" opacity="1.000000" stroke="none" 
	d="
M40.926331,24.798811 
	C42.095409,23.853792 43.261562,23.356701 44.652401,22.679691 
	C45.088646,22.751860 45.348030,23.250957 45.504898,23.220583 
	C53.132980,21.743647 53.889225,27.018419 55.021481,32.923485 
	C57.124500,34.440567 59.118961,35.299828 56.208344,37.220356 
	C54.876873,38.098904 53.508133,39.063499 52.555534,40.297318 
	C52.216618,40.736282 53.058220,42.086700 53.255917,43.362473 
	C52.645569,44.769581 52.140240,45.835278 51.397091,46.987122 
	C51.157562,47.724819 51.155853,48.376369 51.155968,49.281178 
	C51.127499,49.700535 51.097210,49.866638 50.756134,50.152061 
	C49.412773,50.537113 48.380192,50.802849 47.239021,51.036156 
	C47.130432,51.003723 46.916439,50.929016 46.916439,50.929016 
	C47.252846,49.509686 48.289154,47.767406 47.808258,46.725201 
	C45.314823,41.321384 47.023781,34.507198 41.968483,29.912254 
	C41.003670,29.035297 41.240807,26.835966 40.926331,24.798811 
z"/>
<path fill="#E6F1E9" opacity="1.000000" stroke="none" 
	d="
M27.837791,46.986835 
	C27.245020,48.406364 26.399605,49.555958 25.283184,50.605759 
	C24.997231,50.306084 24.982285,50.106194 24.874561,49.596504 
	C24.098717,48.838188 23.415646,48.389668 22.732574,47.941147 
	C22.452745,47.165585 22.172920,46.390015 21.953894,45.305962 
	C23.871511,45.570618 25.728329,46.143757 27.837791,46.986835 
z"/>
<path fill="#EDFEEC" opacity="1.000000" stroke="none" 
	d="
M37.767750,46.871895 
	C35.248890,47.150452 32.454819,47.168579 29.333462,47.024155 
	C31.834963,46.778225 34.663754,46.694847 37.767750,46.871895 
z"/>
<path fill="#E6F1E9" opacity="1.000000" stroke="none" 
	d="
M26.226835,42.903229 
	C26.417126,42.354416 26.920994,41.767086 27.737408,41.139809 
	C27.546772,41.688145 27.043592,42.276424 26.226835,42.903229 
z"/>
<path fill="#EDFEEC" opacity="1.000000" stroke="none" 
	d="
M47.319698,52.061554 
	C46.853893,51.824200 46.388088,51.586845 46.030762,51.167137 
	C46.139233,50.984776 46.528812,50.958855 46.722626,50.943935 
	C46.916439,50.929016 47.130432,51.003723 47.208328,51.283615 
	C47.286228,51.563503 47.319698,52.061550 47.319698,52.061554 
z"/>
<path fill="#EDFEEC" opacity="1.000000" stroke="none" 
	d="
M42.757385,47.969753 
	C42.610104,47.988922 42.358837,47.762165 41.943607,47.340515 
	C42.070896,47.338352 42.362148,47.531094 42.757385,47.969753 
z"/>
<path fill="#F3FEF3" opacity="1.000000" stroke="none" 
	d="
M21.750320,61.013161 
	C23.446728,62.963539 25.185598,64.797523 26.223909,66.966827 
	C26.774572,68.117302 26.108925,69.849953 25.993294,71.661697 
	C20.423658,70.585739 21.028528,66.104675 21.002831,61.512375 
	C21.004625,61.087467 21.501581,61.036144 21.750320,61.013161 
z"/>
<path fill="#F3FEF3" opacity="1.000000" stroke="none" 
	d="
M25.992428,78.375656 
	C31.730497,77.756775 29.265451,81.912712 29.325220,84.867523 
	C26.180195,83.928101 25.089706,81.818108 25.992428,78.375656 
z"/>
<path fill="#F3FEF3" opacity="1.000000" stroke="none" 
	d="
M24.856464,73.074097 
	C26.051111,74.029007 26.910673,74.971794 27.868740,76.022629 
	C27.589170,76.245918 26.830133,76.852158 26.027065,77.733002 
	C24.957569,77.075897 23.824709,76.225220 23.004648,75.138504 
	C22.855278,74.940567 23.983133,73.778816 24.856464,73.074097 
z"/>
<path fill="#F3FEF3" opacity="1.000000" stroke="none" 
	d="
M21.928173,81.408737 
	C21.347307,80.870522 21.042130,80.284897 20.736954,79.699265 
	C21.161789,79.612602 21.586624,79.525932 22.011459,79.439255 
	C22.075592,80.079941 22.139727,80.720627 21.928173,81.408737 
z"/>
<path fill="#C3F9C4" opacity="1.000000" stroke="none" 
	d="
M19.050823,59.332005 
	C19.558720,59.535080 20.159775,60.026516 20.865273,60.739212 
	C20.361135,60.513775 19.752558,60.067070 19.050823,59.332005 
z"/>
<path fill="#F3FEF3" opacity="1.000000" stroke="none" 
	d="
M18.508350,69.513008 
	C18.485838,69.522079 18.530865,69.503937 18.508350,69.513008 
z"/>
<path fill="#F3FEF3" opacity="1.000000" stroke="none" 
	d="
M29.032053,86.173798 
	C29.160702,86.084312 29.300222,86.266884 29.381788,86.472443 
	C29.412037,86.548668 29.306282,86.678864 29.136692,86.901093 
	C29.013865,86.830147 29.016893,86.642555 29.032053,86.173798 
z"/>
<path fill="#F8C0C0" opacity="1.000000" stroke="none" 
	d="
M53.360935,43.021053 
	C53.058220,42.086700 52.216618,40.736282 52.555534,40.297318 
	C53.508133,39.063499 54.876873,38.098904 56.208344,37.220356 
	C59.118961,35.299828 57.124500,34.440567 55.257744,33.220421 
	C62.632702,31.242302 56.226971,26.862833 57.216637,22.512571 
	C59.132301,22.512571 61.499783,22.512571 63.941353,22.239613 
	C66.578911,22.396898 69.142372,22.827145 72.130806,23.089306 
	C72.555771,22.921223 72.932747,22.940018 73.152206,23.174669 
	C74.260963,24.257589 75.150261,25.105858 76.318161,26.133018 
	C80.371437,28.226923 84.146126,30.141935 87.920807,32.056946 
	C87.672333,33.198086 87.423859,34.339230 86.829422,36.013054 
	C86.337631,37.710911 86.191803,38.876083 86.042297,40.050659 
	C86.038628,40.060059 86.055084,40.087784 85.796402,40.172401 
	C83.928146,41.109295 81.914124,41.606697 80.791428,42.886192 
	C78.293694,45.732761 75.294479,45.856106 72.831955,43.962391 
	C68.144508,40.357685 66.433853,42.984425 64.576263,47.003899 
	C62.773823,47.714855 61.303600,48.347000 59.829376,48.604908 
	C59.925770,46.627876 60.026161,45.025085 60.151684,43.021053 
	C57.718159,43.021053 55.539547,43.021053 53.360935,43.021053 
z"/>
<path fill="#B1C7BD" opacity="1.000000" stroke="none" 
	d="
M24.973497,52.967781 
	C25.039007,53.923149 25.104517,54.878521 25.013874,55.987259 
	C23.409647,55.498184 21.961569,54.855732 20.222027,53.751099 
	C19.926569,52.879471 19.922581,52.470028 19.918591,52.060577 
	C20.407059,51.697926 20.895529,51.335274 21.790157,51.180485 
	C22.371321,51.674938 22.616358,51.876305 23.191219,52.108124 
	C23.958508,52.471802 24.466002,52.719791 24.973497,52.967781 
z"/>
<path fill="#444F5E" opacity="1.000000" stroke="none" 
	d="
M19.698530,52.195042 
	C19.922581,52.470028 19.926569,52.879471 19.904518,53.594864 
	C19.534538,53.988277 19.260696,53.886726 18.967827,53.382305 
	C19.078623,52.888805 19.278545,52.609154 19.698530,52.195042 
z"/>
<path fill="#71707B" opacity="1.000000" stroke="none" 
	d="
M72.932747,22.940018 
	C72.932747,22.940018 72.555771,22.921223 72.367126,22.919540 
	C71.882423,21.996616 71.586349,21.075375 71.556152,19.973507 
	C72.516640,19.397554 73.211273,19.002228 74.270660,18.298225 
	C75.080704,18.323481 75.525986,18.657415 75.673325,19.151152 
	C74.561180,20.520641 73.746964,21.730331 72.932747,22.940018 
z"/>
<path fill="#D1E3D5" opacity="1.000000" stroke="none" 
	d="
M22.485832,48.075630 
	C23.415646,48.389668 24.098717,48.838188 24.647297,49.723106 
	C24.080904,50.445461 23.649004,50.731419 23.098530,50.761681 
	C22.683865,50.283028 22.387774,50.060070 22.091681,49.837116 
	C22.140816,49.294785 22.189953,48.752449 22.485832,48.075630 
z"/>
<path fill="#7A858C" opacity="1.000000" stroke="none" 
	d="
M22.061344,50.113255 
	C22.387774,50.060070 22.683865,50.283028 23.014477,51.001781 
	C23.009809,51.662529 22.970619,51.827484 22.931427,51.992439 
	C22.616358,51.876305 22.371321,51.674938 22.100109,51.166344 
	C22.012938,50.759354 22.021971,50.574371 22.061344,50.113255 
z"/>
<path fill="#F5E5E6" opacity="1.000000" stroke="none" 
	d="
M75.971260,18.991352 
	C75.525986,18.657415 75.080704,18.323481 74.321136,17.968117 
	C74.006851,17.946690 74.037727,17.475767 74.017860,17.240736 
	C74.451157,16.345106 74.904320,15.684508 75.897186,15.079201 
	C76.436882,15.134494 76.862473,15.300560 76.944000,15.602821 
	C77.678833,16.270535 78.332138,16.635984 78.908455,17.375921 
	C78.833099,18.497925 78.834740,19.245443 78.661209,19.992447 
	C78.486023,19.991934 78.136383,20.014378 77.855942,19.908184 
	C77.040756,19.531778 76.506004,19.261566 75.971260,18.991352 
z"/>
<path fill="#5A6571" opacity="1.000000" stroke="none" 
	d="
M76.862473,15.300560 
	C76.862473,15.300560 76.436882,15.134494 76.231583,15.034330 
	C76.001823,14.506297 75.977371,14.078427 75.978600,13.329983 
	C76.489853,13.283513 76.975441,13.557618 77.718964,13.941521 
	C77.976906,14.051317 78.058945,14.531317 77.778137,14.840340 
	C77.285713,15.199761 77.074089,15.250161 76.862473,15.300560 
z"/>
<path fill="#84E385" opacity="1.000000" stroke="none" 
	d="
M40.858894,80.915688 
	C41.377644,79.906502 41.896397,78.897316 42.642250,77.446320 
	C33.378483,74.837074 40.560860,67.332993 37.953182,62.595642 
	C41.069290,60.647564 42.273579,55.481239 47.770813,57.324638 
	C49.097179,59.440304 50.081936,61.197697 50.689400,63.024658 
	C48.424992,63.570553 46.537872,64.046875 43.780022,64.742981 
	C44.610981,66.709427 45.306549,68.355484 45.912327,70.042313 
	C45.822536,70.083099 45.807827,70.315865 45.807827,70.315865 
	C45.807827,70.315865 45.998432,69.997864 46.402817,69.997177 
	C50.676273,70.477921 52.952057,68.670776 54.222885,65.243217 
	C56.363804,66.305901 58.229755,67.150543 60.444183,68.121628 
	C62.861702,68.831604 64.930740,69.415131 66.999779,69.998665 
	C65.736313,75.762810 63.109390,72.429901 59.494411,70.130585 
	C57.941452,73.966652 56.477554,77.582733 54.725830,81.463333 
	C51.058239,78.723656 50.492172,82.473610 48.997440,83.994347 
	C48.137463,84.537483 47.277485,85.080620 45.954849,85.742775 
	C42.053391,85.987656 41.034512,83.846634 40.858894,80.915688 
M44.539791,72.505341 
	C44.539791,72.505341 44.484436,72.529686 44.539791,72.505341 
z"/>
<path fill="#42CC45" opacity="1.000000" stroke="none" 
	d="
M67.321236,69.935081 
	C64.930740,69.415131 62.861702,68.831604 60.347523,67.773590 
	C59.332493,64.228111 58.762600,61.157131 58.423214,57.968216 
	C58.884781,57.592091 59.115841,57.333904 59.567703,56.990345 
	C60.517754,56.596901 61.247005,56.288826 61.987274,56.312271 
	C62.976910,58.483070 63.955524,60.322353 65.101517,62.434063 
	C66.498726,63.474667 67.728569,64.242844 68.966789,65.017227 
	C68.975174,65.023438 68.996254,65.032997 69.150726,65.246323 
	C69.568954,65.689598 69.832710,65.919556 70.096458,66.149506 
	C69.278534,67.390167 68.460609,68.630836 67.321236,69.935081 
z"/>
<path fill="#AAF3AB" opacity="1.000000" stroke="none" 
	d="
M40.483665,80.934937 
	C41.034512,83.846634 42.053391,85.987656 45.773613,85.989090 
	C45.736248,87.492004 45.417454,88.867630 45.028744,90.590591 
	C44.958824,90.937935 44.968960,90.963837 44.606682,90.944885 
	C41.490604,89.643463 38.736809,88.360992 35.983009,87.078522 
	C35.559559,85.227463 35.136105,83.376404 34.581989,80.954178 
	C36.915447,80.954178 38.511944,80.954178 40.483665,80.934937 
z"/>
<path fill="#D6E1C7" opacity="1.000000" stroke="none" 
	d="
M78.044128,65.015717 
	C76.884056,66.529236 75.723991,68.042747 74.268402,69.665100 
	C73.815613,68.697243 73.658333,67.620544 73.255928,66.274155 
	C73.010803,66.004471 72.969055,65.956589 73.134659,65.645966 
	C73.472336,64.653206 73.644402,63.971077 73.703247,63.041336 
	C74.048073,61.184643 74.506111,59.575558 74.939667,57.730145 
	C74.915184,57.493813 74.878426,57.019295 75.222855,57.047070 
	C77.158615,57.777252 78.749939,58.479660 79.518600,58.818947 
	C78.914589,61.357433 78.479355,63.186577 78.044128,65.015717 
z"/>
<path fill="#557D63" opacity="1.000000" stroke="none" 
	d="
M74.964157,57.966476 
	C74.506111,59.575558 74.048073,61.184643 73.348289,63.144966 
	C72.798698,64.354034 72.490845,65.211861 72.097649,66.086136 
	C72.012306,66.102600 72.006096,66.276321 72.006096,66.276321 
	C71.581345,66.260216 71.156593,66.244118 70.414154,66.188766 
	C69.832710,65.919556 69.568954,65.689598 69.401436,65.178391 
	C70.285797,62.632900 71.073929,60.368675 72.248161,58.053867 
	C73.410889,57.991016 74.187523,57.978745 74.964157,57.966476 
z"/>
<path fill="#AAF3AB" opacity="1.000000" stroke="none" 
	d="
M49.272224,84.222168 
	C50.492172,82.473610 51.058239,78.723656 54.718689,81.862808 
	C54.319569,85.344643 52.135105,85.346031 49.272224,84.222168 
z"/>
<path fill="#D6E1C7" opacity="1.000000" stroke="none" 
	d="
M73.031967,66.028152 
	C72.715477,66.520805 72.377838,66.989792 72.040192,67.458771 
	C71.980385,67.189613 71.920578,66.920464 71.933434,66.463814 
	C72.006096,66.276321 72.012306,66.102600 72.294571,66.061218 
	C72.576843,66.019844 72.969055,65.956589 72.969055,65.956589 
	C72.969055,65.956589 73.010803,66.004471 73.031967,66.028152 
z"/>
<path fill="#F4E1DC" opacity="1.000000" stroke="none" 
	d="
M78.379120,64.953934 
	C78.479355,63.186577 78.914589,61.357433 79.518600,58.818947 
	C78.749939,58.479660 77.158615,57.777252 74.987854,56.813957 
	C73.577614,54.806152 72.746811,53.059238 71.924530,50.967110 
	C69.591515,49.389629 67.249992,48.157360 64.908470,46.925091 
	C66.433853,42.984425 68.144508,40.357685 72.831955,43.962391 
	C75.294479,45.856106 78.293694,45.732761 80.791428,42.886192 
	C81.914124,41.606697 83.928146,41.109295 85.761703,40.493587 
	C85.321915,41.844982 84.658157,42.959812 83.789238,44.305077 
	C81.181908,50.150330 82.195045,53.523811 86.932129,54.254978 
	C88.848251,54.550724 90.981194,53.441616 93.254082,53.013794 
	C93.492691,53.055790 93.974823,53.007412 93.974823,53.007412 
	C93.995239,53.742085 94.015663,54.476757 93.923927,55.855469 
	C93.488190,56.985767 93.164612,57.472027 92.503624,58.045914 
	C87.574829,60.717133 87.422012,61.803703 91.081802,66.349945 
	C91.384445,66.840683 91.653320,67.065994 91.865852,67.425461 
	C91.809509,67.559624 91.819084,67.850479 91.819084,67.850479 
	C91.819084,67.850479 91.863892,67.934418 91.462708,67.892975 
	C90.517128,67.894119 89.972725,67.936707 89.428322,67.979294 
	C85.856918,66.950249 82.285515,65.921204 78.379120,64.953934 
M76.912888,54.852833 
	C76.912888,54.852833 76.723457,54.834911 76.723457,54.834911 
	C76.723457,54.834911 77.004791,54.996635 77.084000,55.150078 
	C77.084000,55.150078 77.271332,55.173481 77.271332,55.173481 
	C77.271332,55.173481 76.996780,55.004745 76.912888,54.852833 
z"/>
<path fill="#CFD5D5" opacity="1.000000" stroke="none" 
	d="
M91.137924,81.011108 
	C90.531456,81.834839 89.924995,82.658562 89.160995,83.746948 
	C86.637581,85.394806 84.271690,86.778023 81.559021,88.221619 
	C80.692802,83.284157 85.355965,81.566116 87.855148,78.117989 
	C88.567627,78.251877 88.966766,78.548073 89.731735,79.223785 
	C90.444359,80.072563 90.791145,80.541832 91.137924,81.011108 
z"/>
<path fill="#505C69" opacity="1.000000" stroke="none" 
	d="
M89.663223,68.271919 
	C89.972725,67.936707 90.517128,67.894119 91.471695,67.846252 
	C91.907906,68.046135 91.933945,68.251289 92.130783,68.988892 
	C92.549583,69.774200 92.797569,70.027069 93.045555,70.279938 
	C93.931099,71.162872 94.816650,72.045799 96.334457,73.559120 
	C93.515656,73.179604 92.016579,72.977776 90.217133,72.903351 
	C89.910553,71.542015 89.904335,70.053284 89.663223,68.271919 
z"/>
<path fill="#98A1AB" opacity="1.000000" stroke="none" 
	d="
M31.846851,106.624306 
	C31.332523,106.721352 30.851269,106.505676 30.396473,105.883102 
	C30.900862,105.283493 31.378788,105.090790 31.856714,104.898079 
	C31.856714,104.898079 31.969490,104.983704 32.025692,105.027298 
	C32.014572,105.484451 31.947248,105.898026 31.846851,106.624306 
z"/>
<path fill="#6E7884" opacity="1.000000" stroke="none" 
	d="
M32.999603,106.999451 
	C32.999207,106.998894 33.184437,106.707611 33.184437,106.707611 
	C33.184437,106.707611 33.166817,106.920433 33.084007,106.960632 
	C33.001198,107.000839 33.000000,107.000000 32.999603,106.999451 
z"/>
<path fill="#AAB5BD" opacity="1.000000" stroke="none" 
	d="
M31.739639,104.593018 
	C31.378788,105.090790 30.900862,105.283493 30.243408,105.658920 
	C30.063881,105.841637 29.727995,105.888718 29.727995,105.888718 
	C29.727995,105.888718 29.390633,105.853874 29.246853,105.765732 
	C29.047327,105.118088 28.991579,104.558578 28.827869,103.591637 
	C29.687462,103.552124 30.655014,103.920044 31.739639,104.593018 
z"/>
<path fill="#57D258" opacity="1.000000" stroke="none" 
	d="
M94.139771,52.719902 
	C93.974823,53.007412 93.492691,53.055790 93.171951,52.659191 
	C91.155197,51.779335 89.459167,51.296078 87.162071,50.641552 
	C87.162071,49.549892 87.162071,47.788380 87.430466,45.832966 
	C89.004601,44.039387 90.310333,42.439713 91.616058,40.840034 
	C91.799263,40.893150 91.983391,40.896584 92.492569,41.064781 
	C94.651337,44.898239 96.485977,48.517246 98.320625,52.136253 
	C96.981987,52.234966 95.643349,52.333679 94.139771,52.719902 
z"/>
<path fill="#F8DEDE" opacity="1.000000" stroke="none" 
	d="
M88.021713,31.720270 
	C84.146126,30.141935 80.371437,28.226923 76.488350,25.951725 
	C77.296059,23.966640 78.212173,22.341743 79.437759,20.551548 
	C80.422874,20.537748 81.098511,20.689247 82.057327,20.969490 
	C83.269196,21.050289 84.197884,21.002344 85.330734,20.957783 
	C85.534897,20.961164 85.943214,20.967901 85.943214,20.967901 
	C86.758858,21.008953 87.574501,21.050005 88.807808,21.112078 
	C87.431503,22.671148 86.250656,24.008804 84.730919,25.730349 
	C86.621735,26.576534 88.024803,27.204441 89.802315,27.999922 
	C89.219887,29.173206 88.671257,30.278400 88.021713,31.720270 
z"/>
<path fill="#616874" opacity="1.000000" stroke="none" 
	d="
M92.841026,57.958286 
	C93.164612,57.472027 93.488190,56.985767 93.918335,56.222931 
	C95.845192,56.449539 97.665497,56.952721 100.041649,57.609554 
	C100.041649,60.230045 100.041649,63.243832 99.759827,66.557510 
	C97.174171,67.210716 94.870346,67.564041 92.192802,67.883919 
	C91.819084,67.850479 91.809509,67.559624 91.891212,67.045395 
	C91.963531,66.277779 91.954147,66.024391 91.965752,65.412766 
	C95.177574,63.038975 93.066467,60.385128 92.841026,57.958286 
M96.523544,64.497559 
	C96.523544,64.497559 96.470032,64.518753 96.523544,64.497559 
M94.492905,65.538780 
	C94.492905,65.538780 94.464592,65.476135 94.492905,65.538780 
z"/>
<path fill="#BDFABE" opacity="1.000000" stroke="none" 
	d="
M98.654709,52.075245 
	C96.485977,48.517246 94.651337,44.898239 92.620415,41.009323 
	C95.311310,38.556934 98.202232,39.380795 100.571930,41.340462 
	C102.238586,42.718723 100.833588,50.292019 98.654709,52.075245 
z"/>
<path fill="#BDFABE" opacity="1.000000" stroke="none" 
	d="
M91.197372,40.595657 
	C90.310333,42.439713 89.004601,44.039387 87.152344,45.673786 
	C85.735336,45.163883 84.864868,44.619263 83.994392,44.074638 
	C84.658157,42.959812 85.321915,41.844982 86.020386,40.408970 
	C86.055084,40.087784 86.038628,40.060059 86.267860,40.103733 
	C86.497093,40.147408 86.960091,40.170502 86.960091,40.170502 
	C88.232956,40.230762 89.505814,40.291019 91.197372,40.595657 
z"/>
<path fill="#CFECD2" opacity="1.000000" stroke="none" 
	d="
M100.871719,22.208994 
	C101.264153,21.150093 101.656593,20.091194 102.049026,19.032293 
	C102.524261,19.172443 102.999504,19.312593 103.474747,19.452745 
	C103.128708,20.483860 102.782677,21.514975 102.261047,22.733200 
	C102.085449,22.920309 101.711143,23.017004 101.386841,22.840239 
	C101.062531,22.663473 100.871719,22.208994 100.871719,22.208994 
z"/>
<path fill="#808791" opacity="1.000000" stroke="none" 
	d="
M86.008514,13.943087 
	C86.458267,15.490626 86.790871,16.991882 86.797440,18.435061 
	C86.471405,18.376984 86.414719,18.385038 86.352890,18.085327 
	C86.178200,16.966726 86.065346,16.147835 85.896500,14.996947 
	C85.783119,14.447953 85.725731,14.230954 85.668350,14.013956 
	C85.668350,14.013956 85.891365,13.896802 86.008514,13.943087 
z"/>
<path fill="#F4E1DC" opacity="1.000000" stroke="none" 
	d="
M87.014793,39.842747 
	C86.960091,40.170502 86.497093,40.147408 86.271530,40.094330 
	C86.191803,38.876083 86.337631,37.710911 86.705627,36.272076 
	C86.975029,37.170609 87.022263,38.342800 87.014793,39.842747 
z"/>
<path fill="#A2B4B5" opacity="1.000000" stroke="none" 
	d="
M100.579742,22.162178 
	C100.871719,22.208994 101.062531,22.663473 101.195999,22.870964 
	C100.592529,22.964930 99.855598,22.851404 99.111801,22.404255 
	C99.499222,22.085541 99.893494,22.100451 100.579742,22.162178 
z"/>
<path fill="#CFECD2" opacity="1.000000" stroke="none" 
	d="
M103.821747,24.728109 
	C103.963722,25.056807 103.919075,25.342710 103.874420,25.628613 
	C103.794655,25.314182 103.714882,24.999748 103.821747,24.728109 
z"/>
<path fill="#BDF3BF" opacity="1.000000" stroke="none" 
	d="
M106.996552,47.994946 
	C106.992592,47.989571 106.804031,48.291458 106.804031,48.291458 
	C106.804031,48.291458 106.830559,48.067986 106.921310,48.038498 
	C107.012062,48.009007 107.000519,48.000320 106.996552,47.994946 
z"/>
<path fill="#475361" opacity="1.000000" stroke="none" 
	d="
M109.404343,48.935066 
	C109.171722,48.879520 109.553329,48.591465 109.553329,48.591465 
	C109.553329,48.591465 109.885757,48.773594 110.000443,48.888512 
	C110.115128,49.003429 109.636971,48.990608 109.404343,48.935066 
z"/>
<path fill="#F8DEDE" opacity="1.000000" stroke="none" 
	d="
M86.490036,18.398720 
	C86.399803,18.691988 86.290947,18.963518 85.851471,19.642738 
	C85.520851,20.050425 85.162582,20.050591 85.129662,19.782331 
	C85.092422,19.334406 85.088097,19.154737 85.427841,18.853142 
	C85.986191,18.615820 86.200455,18.500429 86.414719,18.385038 
	C86.414719,18.385038 86.471405,18.376984 86.490036,18.398720 
z"/>
<path fill="#E8DCDD" opacity="1.000000" stroke="none" 
	d="
M85.162582,20.050591 
	C85.162582,20.050591 85.520851,20.050425 85.698471,20.054012 
	C85.876099,20.057600 85.929878,20.511690 85.936546,20.739796 
	C85.943214,20.967901 85.534897,20.961164 85.323784,20.731386 
	C85.112671,20.501608 85.162582,20.050591 85.162582,20.050591 
z"/>
<path fill="#C2F6C4" opacity="1.000000" stroke="none" 
	d="
M104.520065,11.495369 
	C104.533104,11.525363 104.507019,11.465375 104.520065,11.495369 
z"/>
<path fill="#E2F3E4" opacity="1.000000" stroke="none" 
	d="
M105.500992,15.507969 
	C105.478493,15.516370 105.523491,15.499569 105.500992,15.507969 
z"/>
<path fill="#BAF3B6" opacity="1.000000" stroke="none" 
	d="
M58.192707,58.086151 
	C58.762600,61.157131 59.332493,64.228111 59.999046,67.647141 
	C58.229755,67.150543 56.363804,66.305901 54.150620,64.921936 
	C52.891155,63.906765 51.978924,63.430927 51.066692,62.955086 
	C50.081936,61.197697 49.097179,59.440304 48.036644,57.350986 
	C48.430775,57.008751 48.900692,56.998447 49.964874,57.089931 
	C51.034752,57.419685 51.510357,57.647652 52.313690,57.953079 
	C54.114346,57.967907 55.587269,57.905273 57.345741,57.892273 
	C57.818428,57.989990 58.005569,58.038071 58.192707,58.086151 
z"/>
<path fill="#F8C0C0" opacity="1.000000" stroke="none" 
	d="
M51.985962,57.875614 
	C51.510357,57.647652 51.034752,57.419685 50.317139,57.085560 
	C49.792210,56.509827 49.509289,56.040253 49.020153,55.097172 
	C48.650089,54.341160 48.436356,54.103539 48.172733,53.910801 
	C47.995583,53.424179 47.818436,52.937553 47.480492,52.256241 
	C47.319698,52.061550 47.286228,51.563503 47.316921,51.316044 
	C48.380192,50.802849 49.412773,50.537113 50.841820,50.506950 
	C53.241016,51.833530 55.243740,52.924545 57.303566,54.154160 
	C57.360661,54.292759 57.326015,54.592945 57.247604,54.693035 
	C57.169197,54.793125 57.007191,54.989128 56.734764,55.116821 
	C54.970215,56.121548 53.478088,56.998581 51.985962,57.875614 
z"/>
<path fill="#BFF8BF" opacity="1.000000" stroke="none" 
	d="
M35.987789,87.423912 
	C38.736809,88.360992 41.490604,89.643463 44.599152,90.943985 
	C43.332172,93.705505 41.890701,95.221260 39.588459,91.280190 
	C38.849720,90.015602 34.862499,91.491638 35.987789,87.423912 
z"/>
<path fill="#EAFBEB" opacity="1.000000" stroke="none" 
	d="
M23.191219,52.108124 
	C22.970619,51.827484 23.009809,51.662529 23.133049,51.257477 
	C23.649004,50.731419 24.080904,50.445461 24.740070,50.032906 
	C24.982285,50.106194 24.997231,50.306084 25.037987,50.807076 
	C25.040403,51.521015 25.017010,51.933853 24.983557,52.657234 
	C24.466002,52.719791 23.958508,52.471802 23.191219,52.108124 
z"/>
<path fill="#FADDDD" opacity="1.000000" stroke="none" 
	d="
M48.255264,54.139839 
	C48.436356,54.103539 48.650089,54.341160 48.910812,54.846058 
	C48.727448,54.889774 48.504150,54.656586 48.255264,54.139839 
z"/>
<path fill="#B1C7BD" opacity="1.000000" stroke="none" 
	d="
M26.503002,53.540108 
	C26.472675,53.555050 26.533331,53.525166 26.503002,53.540108 
z"/>
<path fill="#505C69" opacity="1.000000" stroke="none" 
	d="
M101.796600,80.231583 
	C103.013985,80.760208 104.018417,81.538673 105.014832,82.658028 
	C103.484001,82.994881 101.961182,82.990837 100.438370,82.986786 
	C100.820137,82.151665 101.201897,81.316544 101.796600,80.231583 
z"/>
<path fill="#505C69" opacity="1.000000" stroke="none" 
	d="
M91.437866,81.010452 
	C90.791145,80.541832 90.444359,80.072563 89.963196,79.341156 
	C91.217201,79.250732 92.605583,79.422447 93.993958,79.594162 
	C93.973534,79.972672 93.953110,80.351173 93.932686,80.729683 
	C93.201057,80.823051 92.469437,80.916428 91.437866,81.010452 
z"/>
<path fill="#6D737F" opacity="1.000000" stroke="none" 
	d="
M92.942444,70.025574 
	C92.797569,70.027069 92.549583,69.774200 92.163292,69.297386 
	C92.296440,69.306023 92.567886,69.538620 92.942444,70.025574 
z"/>
<path fill="#E8DCDD" opacity="1.000000" stroke="none" 
	d="
M86.352890,18.085327 
	C86.200455,18.500429 85.986191,18.615820 85.078461,18.849033 
	C83.691399,18.996933 82.997795,19.027012 82.272156,18.725212 
	C82.128952,17.962904 82.017792,17.532475 82.017197,16.840439 
	C82.429535,16.098379 82.731300,15.617927 83.033066,15.137474 
	C83.468315,15.061070 83.903564,14.984668 84.892349,15.033317 
	C85.614754,15.215226 85.783623,15.272084 85.952492,15.328943 
	C86.065346,16.147835 86.178200,16.966726 86.352890,18.085327 
z"/>
<path fill="#BBB5BB" opacity="1.000000" stroke="none" 
	d="
M82.716087,15.087889 
	C82.731300,15.617927 82.429535,16.098379 81.659912,16.747004 
	C80.456528,16.943930 79.720993,16.972683 78.985451,17.001434 
	C78.332138,16.635984 77.678833,16.270535 76.944000,15.602821 
	C77.074089,15.250161 77.285713,15.199761 77.816376,15.080799 
	C79.007385,15.119572 79.879356,15.226907 80.938965,15.106470 
	C81.550766,14.931899 81.974937,14.985100 82.716087,15.087889 
z"/>
<path fill="#596370" opacity="1.000000" stroke="none" 
	d="
M85.896500,14.996947 
	C85.783623,15.272084 85.614754,15.215226 85.224030,15.009352 
	C85.116753,14.647096 85.256866,14.452203 85.545425,14.144808 
	C85.725731,14.230954 85.783119,14.447953 85.896500,14.996947 
z"/>
<path fill="#8CAD93" opacity="1.000000" stroke="none" 
	d="
M118.745605,87.267380 
	C118.797173,87.414429 118.662735,87.561378 118.351570,87.720886 
	C118.258682,87.544312 118.386932,87.388924 118.745605,87.267380 
z"/>
<path fill="#F97473" opacity="1.000000" stroke="none" 
	d="
M57.246468,54.015556 
	C55.243740,52.924545 53.241016,51.833530 51.152603,50.387634 
	C51.097210,49.866638 51.127499,49.700535 51.352654,49.065319 
	C51.576649,48.031128 51.605782,47.466049 51.634911,46.900974 
	C52.140240,45.835278 52.645569,44.769581 53.255917,43.362473 
	C55.539547,43.021053 57.718159,43.021053 60.151684,43.021053 
	C60.026161,45.025085 59.925770,46.627876 59.644150,48.797363 
	C59.383873,49.890266 59.304825,50.416473 59.129608,51.138714 
	C59.033440,51.334747 58.955986,51.763039 58.666611,51.880325 
	C58.000309,52.670258 57.623386,53.342907 57.246468,54.015556 
z"/>
<path fill="#F8C0C0" opacity="1.000000" stroke="none" 
	d="
M51.397091,46.987122 
	C51.605782,47.466049 51.576649,48.031128 51.350830,48.812061 
	C51.155853,48.376369 51.157562,47.724819 51.397091,46.987122 
z"/>
<path fill="#DFEBD2" opacity="1.000000" stroke="none" 
	d="
M59.225777,50.942680 
	C59.304825,50.416473 59.383873,49.890266 59.648148,49.171600 
	C61.303600,48.347000 62.773823,47.714855 64.576263,47.003899 
	C67.249992,48.157360 69.591515,49.389629 71.483429,50.916126 
	C67.412064,51.396954 63.790291,51.583549 60.029015,51.611305 
	C59.699558,51.241779 59.478313,51.071850 59.225777,50.942680 
z"/>
<path fill="#F0CCCE" opacity="1.000000" stroke="none" 
	d="
M79.128288,20.716848 
	C78.212173,22.341743 77.296059,23.966640 76.209747,25.772831 
	C75.150261,25.105858 74.260963,24.257589 73.152206,23.174671 
	C73.746964,21.730331 74.561180,20.520641 75.673325,19.151154 
	C76.506004,19.261566 77.040756,19.531778 78.007797,20.079716 
	C78.663551,20.570969 78.885666,20.785892 79.052170,20.926296 
	C78.997917,20.850382 79.128288,20.716848 79.128288,20.716848 
z"/>
<path fill="#6D727C" opacity="1.000000" stroke="none" 
	d="
M78.908455,17.375923 
	C79.720993,16.972683 80.456528,16.943930 81.549347,17.008610 
	C82.017792,17.532475 82.128952,17.962904 82.135620,19.006384 
	C81.945465,20.026537 81.859802,20.433641 81.774139,20.840746 
	C81.098511,20.689247 80.422874,20.537748 79.437759,20.551548 
	C79.128288,20.716848 78.997917,20.850382 79.013657,20.665794 
	C78.965050,20.318455 78.900719,20.155706 78.836380,19.992960 
	C78.834740,19.245443 78.833099,18.497925 78.908455,17.375923 
z"/>
<path fill="#F8DEDE" opacity="1.000000" stroke="none" 
	d="
M78.661201,19.992447 
	C78.900719,20.155706 78.965050,20.318455 79.067909,20.741707 
	C78.885666,20.785892 78.663551,20.570969 78.288239,20.185909 
	C78.136383,20.014378 78.486023,19.991934 78.661201,19.992447 
z"/>
<path fill="#72DC72" opacity="1.000000" stroke="none" 
	d="
M50.689400,63.024658 
	C51.978924,63.430927 52.891155,63.906765 53.875656,64.703888 
	C52.952057,68.670776 50.676273,70.477921 46.403599,69.998245 
	C46.000000,70.000000 46.002117,70.001534 46.002117,70.001534 
	C45.306549,68.355484 44.610981,66.709427 43.780022,64.742981 
	C46.537872,64.046875 48.424992,63.570553 50.689400,63.024658 
z"/>
<path fill="#72DC72" opacity="1.000000" stroke="none" 
	d="
M44.512115,72.517517 
	C44.484436,72.529686 44.539791,72.505341 44.512115,72.517517 
z"/>
<path fill="#72DC72" opacity="1.000000" stroke="none" 
	d="
M45.999214,69.998932 
	C45.998432,69.997864 45.807827,70.315865 45.807827,70.315865 
	C45.807827,70.315865 45.822536,70.083099 45.912327,70.042313 
	C46.002117,70.001534 46.000000,70.000000 45.999214,69.998932 
z"/>
<path fill="#77A87F" opacity="1.000000" stroke="none" 
	d="
M60.168522,51.770145 
	C63.790291,51.583549 67.412064,51.396954 71.474922,51.261337 
	C72.746811,53.059238 73.577614,54.806152 74.643417,56.786179 
	C74.878426,57.019295 74.915184,57.493813 74.939667,57.730141 
	C74.187523,57.978745 73.410889,57.991016 71.934341,57.903397 
	C68.148369,57.195923 65.062309,56.588337 61.976254,55.980751 
	C61.247005,56.288826 60.517754,56.596901 59.477875,56.660572 
	C58.553501,55.808430 57.939758,55.200687 57.326015,54.592945 
	C57.326015,54.592945 57.360661,54.292759 57.303562,54.154160 
	C57.623386,53.342907 58.000309,52.670258 58.970016,51.928627 
	C59.764709,51.829819 59.966614,51.799984 60.168522,51.770145 
z"/>
<path fill="#465562" opacity="1.000000" stroke="none" 
	d="
M61.987274,56.312271 
	C65.062309,56.588337 68.148369,57.195923 71.548248,57.953979 
	C71.073929,60.368675 70.285797,62.632900 69.246964,64.965057 
	C68.996254,65.032997 68.975174,65.023438 68.936096,64.646263 
	C67.576057,63.566605 66.255096,62.864120 64.934135,62.161636 
	C63.955524,60.322353 62.976910,58.483070 61.987274,56.312271 
z"/>
<path fill="#557D63" opacity="1.000000" stroke="none" 
	d="
M65.101517,62.434063 
	C66.255096,62.864120 67.576057,63.566605 68.927711,64.640060 
	C67.728569,64.242844 66.498726,63.474667 65.101517,62.434063 
z"/>
<path fill="#F8C0C0" opacity="1.000000" stroke="none" 
	d="
M57.247604,54.693035 
	C57.939758,55.200687 58.553501,55.808430 59.257072,56.745945 
	C59.115841,57.333904 58.884781,57.592091 58.423214,57.968216 
	C58.005569,58.038071 57.818428,57.989990 57.344276,57.538261 
	C57.040573,56.419453 57.023884,55.704292 57.007191,54.989128 
	C57.007191,54.989128 57.169197,54.793125 57.247604,54.693035 
z"/>
<path fill="#BFF8BF" opacity="1.000000" stroke="none" 
	d="
M73.134659,65.645966 
	C72.969055,65.956589 72.576843,66.019844 72.379913,66.044762 
	C72.490845,65.211861 72.798698,64.354034 73.461517,63.392578 
	C73.644402,63.971077 73.472336,64.653206 73.134659,65.645966 
z"/>
<path fill="#F0F0E5" opacity="1.000000" stroke="none" 
	d="
M83.789238,44.305077 
	C84.864868,44.619263 85.735336,45.163883 86.883942,45.867687 
	C87.162071,47.788380 87.162071,49.549892 87.162071,50.641552 
	C89.459167,51.296078 91.155197,51.779335 92.933350,52.617195 
	C90.981194,53.441616 88.848251,54.550724 86.932129,54.254978 
	C82.195045,53.523811 81.181908,50.150330 83.789238,44.305077 
z"/>
<path fill="#D8C6C8" opacity="1.000000" stroke="none" 
	d="
M92.503624,58.045914 
	C93.066467,60.385128 95.177574,63.038975 91.738586,65.482849 
	C91.490440,65.911156 91.048035,66.084511 91.048035,66.084511 
	C87.422012,61.803703 87.574829,60.717133 92.503624,58.045914 
z"/>
<path fill="#D6E1C7" opacity="1.000000" stroke="none" 
	d="
M76.996780,55.004745 
	C76.996780,55.004745 77.271332,55.173481 77.271332,55.173481 
	C77.271332,55.173481 77.084000,55.150078 77.042000,55.075039 
	C77.000000,55.000000 76.996780,55.004745 76.996780,55.004745 
z"/>
<path fill="#475160" opacity="1.000000" stroke="none" 
	d="
M91.081802,66.349945 
	C91.048035,66.084511 91.490440,65.911156 91.717606,65.841080 
	C91.954147,66.024391 91.963531,66.277779 91.947556,66.911240 
	C91.653320,67.065994 91.384445,66.840683 91.081802,66.349945 
z"/>
<path fill="#D6E1C7" opacity="1.000000" stroke="none" 
	d="
M77.002396,54.998318 
	C77.004791,54.996635 76.723457,54.834911 76.723457,54.834911 
	C76.723457,54.834911 76.912888,54.852833 76.954834,54.928787 
	C76.996780,55.004745 77.000000,55.000000 77.002396,54.998318 
z"/>
<path fill="#F2FAF2" opacity="1.000000" stroke="none" 
	d="
M82.057327,20.969490 
	C81.859802,20.433641 81.945465,20.026537 82.167656,19.338263 
	C82.997795,19.027012 83.691399,18.996933 84.734390,18.970963 
	C85.088097,19.154737 85.092422,19.334406 85.129662,19.782331 
	C85.162582,20.050591 85.112671,20.501608 85.119621,20.728004 
	C84.197884,21.002344 83.269196,21.050289 82.057327,20.969490 
z"/>
<path fill="#505C69" opacity="1.000000" stroke="none" 
	d="
M96.496788,64.508156 
	C96.470032,64.518753 96.523544,64.497559 96.496788,64.508156 
z"/>
<path fill="#505C69" opacity="1.000000" stroke="none" 
	d="
M94.478745,65.507462 
	C94.464592,65.476135 94.492905,65.538780 94.478745,65.507462 
z"/>
<path fill="#C5B4BC" opacity="1.000000" stroke="none" 
	d="
M56.734764,55.116821 
	C57.023884,55.704292 57.040573,56.419453 57.058727,57.488628 
	C55.587269,57.905273 54.114346,57.967907 52.313690,57.953079 
	C53.478088,56.998581 54.970215,56.121548 56.734764,55.116821 
z"/>
<path fill="#F8C0C0" opacity="1.000000" stroke="none" 
	d="
M60.029015,51.611305 
	C59.966614,51.799984 59.764709,51.829819 59.259396,51.811344 
	C58.955986,51.763039 59.033440,51.334747 59.129608,51.138714 
	C59.478313,51.071850 59.699558,51.241779 60.029015,51.611305 
z"/>
</svg>